<svg width="188" height="188" viewBox="0 0 188 188" fill="none" xmlns="http://www.w3.org/2000/svg">
<g filter="url(#filter0_d_1542_405)">
<path d="M94.5 16C96.3244 16 97.8034 17.479 97.8034 19.3034V38.1026C97.8034 39.927 96.3244 41.4059 94.5 41.4059C92.6756 41.4059 91.1966 39.927 91.1966 38.1026V19.3034C91.1966 17.479 92.6756 16 94.5 16Z" fill="#F5C32D"/>
<path fill-rule="evenodd" clip-rule="evenodd" d="M94.5013 132.098C115.266 132.098 132.1 115.265 132.1 94.4998C132.1 73.7348 115.266 56.9014 94.5013 56.9014C73.7364 56.9014 56.903 73.7348 56.903 94.4998C56.903 115.265 73.7364 132.098 94.5013 132.098ZM94.5013 125.491C111.618 125.491 125.493 111.616 125.493 94.4998C125.493 77.3836 111.618 63.5082 94.5013 63.5082C77.3852 63.5082 63.5098 77.3836 63.5098 94.4998C63.5098 111.616 77.3852 125.491 94.5013 125.491Z" fill="#F5C32D"/>
<path d="M97.8034 150.897C97.8034 149.073 96.3244 147.594 94.5 147.594C92.6756 147.594 91.1966 149.073 91.1966 150.897V169.697C91.1966 171.521 92.6756 173 94.5 173C96.3244 173 97.8034 171.521 97.8034 169.697V150.897Z" fill="#F5C32D"/>
<path d="M173 94.4998C173 96.3242 171.521 97.8032 169.697 97.8032H150.897C149.073 97.8032 147.594 96.3242 147.594 94.4998C147.594 92.6754 149.073 91.1965 150.897 91.1965H169.697C171.521 91.1965 173 92.6754 173 94.4998Z" fill="#F5C32D"/>
<path d="M38.1025 97.8032C39.9269 97.8032 41.4059 96.3242 41.4059 94.4998C41.4059 92.6754 39.9269 91.1965 38.1025 91.1965H19.3034C17.479 91.1965 16 92.6754 16 94.4998C16 96.3242 17.479 97.8032 19.3034 97.8032H38.1025Z" fill="#F5C32D"/>
<path d="M150.008 38.9921C151.298 40.2822 151.298 42.3737 150.008 43.6638L136.715 56.9568C135.425 58.2469 133.333 58.2469 132.043 56.9568C130.753 55.6668 130.753 53.5752 132.043 52.2851L145.336 38.9921C146.626 37.7021 148.718 37.7021 150.008 38.9921Z" fill="#F5C32D"/>
<path d="M56.9589 136.715C58.249 135.425 58.249 133.333 56.9589 132.043C55.6689 130.753 53.5773 130.753 52.2872 132.043L38.9942 145.336C37.7042 146.626 37.7042 148.718 38.9942 150.008C40.2843 151.298 42.3759 151.298 43.6659 150.008L56.9589 136.715Z" fill="#F5C32D"/>
<path d="M150.008 150.008C148.718 151.298 146.626 151.298 145.336 150.008L132.043 136.715C130.753 135.425 130.753 133.333 132.043 132.043C133.333 130.753 135.425 130.753 136.715 132.043L150.008 145.336C151.298 146.626 151.298 148.718 150.008 150.008Z" fill="#F5C32D"/>
<path d="M52.2872 56.9563C53.5773 58.2463 55.6689 58.2463 56.9589 56.9563C58.249 55.6662 58.249 53.5747 56.9589 52.2846L43.6659 38.9916C42.3759 37.7015 40.2843 37.7015 38.9942 38.9916C37.7042 40.2816 37.7042 42.3732 38.9942 43.6633L52.2872 56.9563Z" fill="#F5C32D"/>
<path d="M94.5 16C96.3244 16 97.8034 17.479 97.8034 19.3034V38.1026C97.8034 39.927 96.3244 41.4059 94.5 41.4059C92.6756 41.4059 91.1966 39.927 91.1966 38.1026V19.3034C91.1966 17.479 92.6756 16 94.5 16Z" stroke="#F5C32D" stroke-width="10" stroke-linecap="round"/>
<path fill-rule="evenodd" clip-rule="evenodd" d="M94.5013 132.098C115.266 132.098 132.1 115.265 132.1 94.4998C132.1 73.7348 115.266 56.9014 94.5013 56.9014C73.7364 56.9014 56.903 73.7348 56.903 94.4998C56.903 115.265 73.7364 132.098 94.5013 132.098ZM94.5013 125.491C111.618 125.491 125.493 111.616 125.493 94.4998C125.493 77.3836 111.618 63.5082 94.5013 63.5082C77.3852 63.5082 63.5098 77.3836 63.5098 94.4998C63.5098 111.616 77.3852 125.491 94.5013 125.491Z" stroke="#F5C32D" stroke-width="10" stroke-linecap="round"/>
<path d="M97.8034 150.897C97.8034 149.073 96.3244 147.594 94.5 147.594C92.6756 147.594 91.1966 149.073 91.1966 150.897V169.697C91.1966 171.521 92.6756 173 94.5 173C96.3244 173 97.8034 171.521 97.8034 169.697V150.897Z" stroke="#F5C32D" stroke-width="10" stroke-linecap="round"/>
<path d="M173 94.4998C173 96.3242 171.521 97.8032 169.697 97.8032H150.897C149.073 97.8032 147.594 96.3242 147.594 94.4998C147.594 92.6754 149.073 91.1965 150.897 91.1965H169.697C171.521 91.1965 173 92.6754 173 94.4998Z" stroke="#F5C32D" stroke-width="10" stroke-linecap="round"/>
<path d="M38.1025 97.8032C39.9269 97.8032 41.4059 96.3242 41.4059 94.4998C41.4059 92.6754 39.9269 91.1965 38.1025 91.1965H19.3034C17.479 91.1965 16 92.6754 16 94.4998C16 96.3242 17.479 97.8032 19.3034 97.8032H38.1025Z" stroke="#F5C32D" stroke-width="10" stroke-linecap="round"/>
<path d="M150.008 38.9921C151.298 40.2822 151.298 42.3737 150.008 43.6638L136.715 56.9568C135.425 58.2469 133.333 58.2469 132.043 56.9568C130.753 55.6668 130.753 53.5752 132.043 52.2851L145.336 38.9921C146.626 37.7021 148.718 37.7021 150.008 38.9921Z" stroke="#F5C32D" stroke-width="10" stroke-linecap="round"/>
<path d="M56.9589 136.715C58.249 135.425 58.249 133.333 56.9589 132.043C55.6689 130.753 53.5773 130.753 52.2872 132.043L38.9942 145.336C37.7042 146.626 37.7042 148.718 38.9942 150.008C40.2843 151.298 42.3759 151.298 43.6659 150.008L56.9589 136.715Z" stroke="#F5C32D" stroke-width="10" stroke-linecap="round"/>
<path d="M150.008 150.008C148.718 151.298 146.626 151.298 145.336 150.008L132.043 136.715C130.753 135.425 130.753 133.333 132.043 132.043C133.333 130.753 135.425 130.753 136.715 132.043L150.008 145.336C151.298 146.626 151.298 148.718 150.008 150.008Z" stroke="#F5C32D" stroke-width="10" stroke-linecap="round"/>
<path d="M52.2872 56.9563C53.5773 58.2463 55.6689 58.2463 56.9589 56.9563C58.249 55.6662 58.249 53.5747 56.9589 52.2846L43.6659 38.9916C42.3759 37.7015 40.2843 37.7015 38.9942 38.9916C37.7042 40.2816 37.7042 42.3732 38.9942 43.6633L52.2872 56.9563Z" stroke="#F5C32D" stroke-width="10" stroke-linecap="round"/>
</g>
<defs>
<filter id="filter0_d_1542_405" x="7" y="11" width="175" height="176" filterUnits="userSpaceOnUse" color-interpolation-filters="sRGB">
<feFlood flood-opacity="0" result="BackgroundImageFix"/>
<feColorMatrix in="SourceAlpha" type="matrix" values="0 0 0 0 0 0 0 0 0 0 0 0 0 0 0 0 0 0 127 0" result="hardAlpha"/>
<feOffset dy="5"/>
<feGaussianBlur stdDeviation="2"/>
<feComposite in2="hardAlpha" operator="out"/>
<feColorMatrix type="matrix" values="0 0 0 0 0 0 0 0 0 0 0 0 0 0 0 0 0 0 0.25 0"/>
<feBlend mode="normal" in2="BackgroundImageFix" result="effect1_dropShadow_1542_405"/>
<feBlend mode="normal" in="SourceGraphic" in2="effect1_dropShadow_1542_405" result="shape"/>
</filter>
</defs>
</svg>
