<svg width="65" height="60" viewBox="0 0 65 60" fill="none" xmlns="http://www.w3.org/2000/svg">
<path fill-rule="evenodd" clip-rule="evenodd" d="M30.2941 1.18382C31.0471 -0.227938 33.0706 -0.227946 33.8235 1.18382L64 57.7647C64.1653 58.0746 64.1559 58.4486 63.9751 58.7498C63.7944 59.051 63.4689 59.2353 63.1176 59.2353H1C0.648738 59.2353 0.323231 59.051 0.142507 58.7498C-0.0382158 58.4486 -0.0476527 58.0746 0.117647 57.7647L30.2941 1.18382ZM61.451 57.2353L32.0588 2.125L2.66667 57.2353H61.451ZM32.0588 24.4779C32.6111 24.4779 33.0588 24.9257 33.0588 25.4779V34.5772C33.0588 35.1295 32.6111 35.5772 32.0588 35.5772C31.5065 35.5772 31.0588 35.1295 31.0588 34.5772V25.4779C31.0588 24.9257 31.5065 24.4779 32.0588 24.4779ZM34.9412 44.6471C34.9412 46.2389 33.6507 47.5294 32.0588 47.5294C30.4669 47.5294 29.1765 46.2389 29.1765 44.6471C29.1765 43.0552 30.4669 41.7647 32.0588 41.7647C33.6507 41.7647 34.9412 43.0552 34.9412 44.6471ZM35.9412 44.6471C35.9412 46.7912 34.203 48.5294 32.0588 48.5294C29.9147 48.5294 28.1765 46.7912 28.1765 44.6471C28.1765 42.5029 29.9147 40.7647 32.0588 40.7647C34.203 40.7647 35.9412 42.5029 35.9412 44.6471Z" fill="#F36E45"/>
</svg>
