<svg width="264" height="98" viewBox="0 0 264 98" fill="none" xmlns="http://www.w3.org/2000/svg">
<g filter="url(#filter0_d_1542_399)">
<path d="M234.764 1C235.316 1 235.764 1.44772 235.764 2V7.69091C235.764 8.24319 235.316 8.69091 234.764 8.69091C234.211 8.69091 233.764 8.24319 233.764 7.69091V2C233.764 1.44772 234.211 1 234.764 1Z" fill="#F5C32D"/>
<path fill-rule="evenodd" clip-rule="evenodd" d="M234.764 36.1453C241.05 36.1453 246.146 31.0495 246.146 24.7635C246.146 18.4775 241.05 13.3817 234.764 13.3817C228.478 13.3817 223.382 18.4775 223.382 24.7635C223.382 31.0495 228.478 36.1453 234.764 36.1453ZM234.764 34.1453C239.945 34.1453 244.146 29.945 244.146 24.7635C244.146 19.5821 239.945 15.3817 234.764 15.3817C229.583 15.3817 225.382 19.5821 225.382 24.7635C225.382 29.945 229.583 34.1453 234.764 34.1453Z" fill="#F5C32D"/>
<path d="M235.764 41.8362C235.764 41.284 235.316 40.8362 234.764 40.8362C234.211 40.8362 233.764 41.284 233.764 41.8362V47.5272C233.764 48.0794 234.211 48.5272 234.764 48.5272C235.316 48.5272 235.764 48.0794 235.764 47.5272V41.8362Z" fill="#F5C32D"/>
<path d="M258.527 24.7635C258.527 25.3158 258.08 25.7635 257.527 25.7635H251.836C251.284 25.7635 250.836 25.3158 250.836 24.7635C250.836 24.2112 251.284 23.7635 251.836 23.7635H257.527C258.08 23.7635 258.527 24.2112 258.527 24.7635Z" fill="#F5C32D"/>
<path d="M217.691 25.7635C218.243 25.7635 218.691 25.3158 218.691 24.7635C218.691 24.2112 218.243 23.7635 217.691 23.7635H212C211.448 23.7635 211 24.2112 211 24.7635C211 25.3158 211.448 25.7635 212 25.7635H217.691Z" fill="#F5C32D"/>
<path d="M251.567 7.96019C251.958 8.35071 251.958 8.98388 251.567 9.3744L247.543 13.3985C247.152 13.789 246.519 13.789 246.129 13.3985C245.738 13.008 245.738 12.3748 246.129 11.9843L250.153 7.96019C250.543 7.56966 251.176 7.56966 251.567 7.96019Z" fill="#F5C32D"/>
<path d="M223.399 37.5428C223.79 37.1523 223.79 36.5192 223.399 36.1286C223.009 35.7381 222.375 35.7381 221.985 36.1286L217.961 40.1527C217.57 40.5432 217.57 41.1764 217.961 41.5669C218.351 41.9574 218.985 41.9574 219.375 41.5669L223.399 37.5428Z" fill="#F5C32D"/>
<path d="M251.567 41.5669C251.176 41.9574 250.543 41.9574 250.153 41.5669L246.129 37.5428C245.738 37.1523 245.738 36.5191 246.129 36.1286C246.519 35.7381 247.152 35.7381 247.543 36.1286L251.567 40.1527C251.958 40.5432 251.958 41.1764 251.567 41.5669Z" fill="#F5C32D"/>
<path d="M221.985 13.3983C222.375 13.7888 223.009 13.7888 223.399 13.3983C223.79 13.0078 223.79 12.3746 223.399 11.9841L219.375 7.96003C218.985 7.5695 218.351 7.5695 217.961 7.96003C217.57 8.35055 217.57 8.98372 217.961 9.37424L221.985 13.3983Z" fill="#F5C32D"/>
<path d="M234.764 1C235.316 1 235.764 1.44772 235.764 2V7.69091C235.764 8.24319 235.316 8.69091 234.764 8.69091C234.211 8.69091 233.764 8.24319 233.764 7.69091V2C233.764 1.44772 234.211 1 234.764 1Z" stroke="#F5C32D" stroke-width="2" stroke-linecap="round"/>
<path fill-rule="evenodd" clip-rule="evenodd" d="M234.764 36.1453C241.05 36.1453 246.146 31.0495 246.146 24.7635C246.146 18.4775 241.05 13.3817 234.764 13.3817C228.478 13.3817 223.382 18.4775 223.382 24.7635C223.382 31.0495 228.478 36.1453 234.764 36.1453ZM234.764 34.1453C239.945 34.1453 244.146 29.945 244.146 24.7635C244.146 19.5821 239.945 15.3817 234.764 15.3817C229.583 15.3817 225.382 19.5821 225.382 24.7635C225.382 29.945 229.583 34.1453 234.764 34.1453Z" stroke="#F5C32D" stroke-width="2" stroke-linecap="round"/>
<path d="M235.764 41.8362C235.764 41.284 235.316 40.8362 234.764 40.8362C234.211 40.8362 233.764 41.284 233.764 41.8362V47.5272C233.764 48.0794 234.211 48.5272 234.764 48.5272C235.316 48.5272 235.764 48.0794 235.764 47.5272V41.8362Z" stroke="#F5C32D" stroke-width="2" stroke-linecap="round"/>
<path d="M258.527 24.7635C258.527 25.3158 258.08 25.7635 257.527 25.7635H251.836C251.284 25.7635 250.836 25.3158 250.836 24.7635C250.836 24.2112 251.284 23.7635 251.836 23.7635H257.527C258.08 23.7635 258.527 24.2112 258.527 24.7635Z" stroke="#F5C32D" stroke-width="2" stroke-linecap="round"/>
<path d="M217.691 25.7635C218.243 25.7635 218.691 25.3158 218.691 24.7635C218.691 24.2112 218.243 23.7635 217.691 23.7635H212C211.448 23.7635 211 24.2112 211 24.7635C211 25.3158 211.448 25.7635 212 25.7635H217.691Z" stroke="#F5C32D" stroke-width="2" stroke-linecap="round"/>
<path d="M251.567 7.96019C251.958 8.35071 251.958 8.98388 251.567 9.3744L247.543 13.3985C247.152 13.789 246.519 13.789 246.129 13.3985C245.738 13.008 245.738 12.3748 246.129 11.9843L250.153 7.96019C250.543 7.56966 251.176 7.56966 251.567 7.96019Z" stroke="#F5C32D" stroke-width="2" stroke-linecap="round"/>
<path d="M223.399 37.5428C223.79 37.1523 223.79 36.5192 223.399 36.1286C223.009 35.7381 222.375 35.7381 221.985 36.1286L217.961 40.1527C217.57 40.5432 217.57 41.1764 217.961 41.5669C218.351 41.9574 218.985 41.9574 219.375 41.5669L223.399 37.5428Z" stroke="#F5C32D" stroke-width="2" stroke-linecap="round"/>
<path d="M251.567 41.5669C251.176 41.9574 250.543 41.9574 250.153 41.5669L246.129 37.5428C245.738 37.1523 245.738 36.5191 246.129 36.1286C246.519 35.7381 247.152 35.7381 247.543 36.1286L251.567 40.1527C251.958 40.5432 251.958 41.1764 251.567 41.5669Z" stroke="#F5C32D" stroke-width="2" stroke-linecap="round"/>
<path d="M221.985 13.3983C222.375 13.7888 223.009 13.7888 223.399 13.3983C223.79 13.0078 223.79 12.3746 223.399 11.9841L219.375 7.96003C218.985 7.5695 218.351 7.5695 217.961 7.96003C217.57 8.35055 217.57 8.98372 217.961 9.37424L221.985 13.3983Z" stroke="#F5C32D" stroke-width="2" stroke-linecap="round"/>
</g>
<mask id="path-2-outside-1_1542_399" maskUnits="userSpaceOnUse" x="1.19873" y="48.156" width="258" height="44" fill="black">
<rect fill="white" x="1.19873" y="48.156" width="258" height="44"/>
<path d="M11.0399 82.414C9.65993 82.414 8.2646 82.2453 6.85393 81.908C5.47393 81.5707 4.18593 80.988 2.98993 80.16C2.68326 79.9453 2.4686 79.7 2.34593 79.424C2.22326 79.1173 2.17726 78.826 2.20793 78.55C2.26926 78.2433 2.39193 77.9827 2.57593 77.768C2.7906 77.5533 3.03593 77.4307 3.31193 77.4C3.6186 77.3387 3.95593 77.4 4.32393 77.584C5.51993 78.32 6.66993 78.8413 7.77393 79.148C8.9086 79.424 10.0279 79.562 11.1319 79.562C12.8799 79.562 14.1986 79.24 15.0879 78.596C15.9773 77.952 16.4219 77.078 16.4219 75.974C16.4219 75.1153 16.1306 74.4407 15.5479 73.95C14.9653 73.4287 14.0453 73.03 12.7879 72.754L8.60193 71.834C6.66993 71.4353 5.2286 70.7453 4.27793 69.764C3.35793 68.7827 2.89793 67.51 2.89793 65.946C2.89793 64.566 3.2506 63.3853 3.95593 62.404C4.69193 61.392 5.71926 60.61 7.03793 60.058C8.3566 59.506 9.88993 59.23 11.6379 59.23C12.9873 59.23 14.2599 59.414 15.4559 59.782C16.6826 60.1193 17.7866 60.6713 18.7679 61.438C19.0746 61.6527 19.2739 61.9133 19.3659 62.22C19.4886 62.496 19.5039 62.7873 19.4119 63.094C19.3506 63.37 19.2126 63.6153 18.9979 63.83C18.7833 64.014 18.5226 64.1213 18.2159 64.152C17.9093 64.1827 17.5873 64.0907 17.2499 63.876C16.3299 63.2627 15.3946 62.818 14.4439 62.542C13.4933 62.2353 12.5579 62.082 11.6379 62.082C9.9206 62.082 8.61726 62.4193 7.72793 63.094C6.8386 63.7687 6.39393 64.658 6.39393 65.762C6.39393 66.6207 6.66993 67.326 7.22193 67.878C7.77393 68.43 8.6326 68.8287 9.79793 69.074L13.9839 69.948C15.9773 70.3773 17.4646 71.0673 18.4459 72.018C19.4579 72.938 19.9639 74.1953 19.9639 75.79C19.9639 77.814 19.1513 79.424 17.5259 80.62C15.9006 81.816 13.7386 82.414 11.0399 82.414Z"/>
<path d="M181.223 82.506C179.107 82.506 177.328 82.1533 175.887 81.448C174.476 80.7427 173.418 79.7153 172.713 78.366C172.038 77.0167 171.701 75.3147 171.701 73.26V64.612H169.769C168.91 64.612 168.235 64.382 167.745 63.922C167.285 63.462 167.055 62.8333 167.055 62.036C167.055 61.1773 167.285 60.5333 167.745 60.104C168.235 59.644 168.91 59.414 169.769 59.414H171.701V55.918C171.701 54.7527 172.007 53.8787 172.621 53.296C173.234 52.6827 174.093 52.376 175.197 52.376C176.331 52.376 177.19 52.6827 177.773 53.296C178.355 53.8787 178.647 54.7527 178.647 55.918V59.414H183.017C183.875 59.414 184.535 59.644 184.995 60.104C185.455 60.5333 185.685 61.1773 185.685 62.036C185.685 62.8333 185.455 63.462 184.995 63.922C184.535 64.382 183.875 64.612 183.017 64.612H178.647V72.984C178.647 74.272 178.938 75.238 179.521 75.882C180.134 76.526 181.1 76.848 182.419 76.848C182.879 76.848 183.308 76.802 183.707 76.71C184.105 76.618 184.473 76.5567 184.811 76.526C185.24 76.4953 185.593 76.6333 185.869 76.94C186.145 77.216 186.283 77.8447 186.283 78.826C186.283 79.562 186.16 80.206 185.915 80.758C185.669 81.31 185.24 81.7087 184.627 81.954C184.228 82.1073 183.676 82.23 182.971 82.322C182.296 82.4447 181.713 82.506 181.223 82.506Z"/>
<path fill-rule="evenodd" clip-rule="evenodd" d="M80.9366 81.724C81.5499 82.184 82.3472 82.414 83.3286 82.414C84.3099 82.414 85.0766 82.184 85.6286 81.724C86.2112 81.2333 86.6866 80.5127 87.0546 79.562L93.8597 60.5076L100.579 79.516C100.947 80.4973 101.422 81.2333 102.005 81.724C102.587 82.184 103.369 82.414 104.351 82.414C105.363 82.414 106.16 82.184 106.743 81.724C107.325 81.2333 107.785 80.5127 108.123 79.562L117.507 53.388C117.936 52.2227 117.875 51.226 117.323 50.398C116.771 49.57 115.897 49.156 114.701 49.156C113.75 49.156 112.999 49.4013 112.447 49.892C111.895 50.352 111.465 51.0573 111.159 52.008L104.285 72.097L97.4966 52.1C97.1286 51.088 96.6839 50.352 96.1626 49.892C95.6412 49.4013 94.9512 49.156 94.0926 49.156C93.2032 49.156 92.4826 49.4013 91.9306 49.892C91.4092 50.352 90.9646 51.0727 90.5966 52.054L83.6088 71.7321L76.9806 52.008C76.6432 51.0267 76.1986 50.306 75.6466 49.846C75.1252 49.386 74.3739 49.156 73.3926 49.156C71.9819 49.156 70.9852 49.57 70.4026 50.398C69.8506 51.226 69.7739 52.2227 70.1726 53.388L79.4646 79.516C79.8326 80.4973 80.3232 81.2333 80.9366 81.724ZM93.3106 58.954L93.8597 60.5076L94.4146 58.954H93.3106Z"/>
<path d="M94.4146 58.954H93.3106L93.8597 60.5076L94.4146 58.954Z"/>
<path fill-rule="evenodd" clip-rule="evenodd" d="M51.7877 90.234C52.0637 90.4793 52.4317 90.602 52.8917 90.602C53.413 90.602 53.8117 90.4947 54.0877 90.28C54.3943 90.0653 54.6703 89.682 54.9157 89.13L66.6917 61.898C66.8757 61.438 66.937 61.024 66.8757 60.656C66.845 60.2573 66.6917 59.9353 66.4157 59.69C66.1703 59.4447 65.8023 59.322 65.3117 59.322C64.7903 59.322 64.3917 59.4293 64.1157 59.644C63.8397 59.8587 63.579 60.242 63.3337 60.794L56.3224 77.773L49.3957 60.794C49.181 60.242 48.9357 59.8587 48.6597 59.644C48.3837 59.4293 48.0003 59.322 47.5097 59.322C46.9577 59.322 46.5283 59.4447 46.2217 59.69C45.915 59.9353 45.731 60.2573 45.6697 60.656C45.6083 61.0547 45.6697 61.484 45.8537 61.944L54.3333 81.6415L51.5117 87.98C51.3277 88.4093 51.251 88.8233 51.2817 89.222C51.343 89.6513 51.5117 89.9887 51.7877 90.234ZM56.9397 79.286L56.3224 77.773L55.6977 79.286H56.9397Z"/>
<path d="M55.6977 79.286H56.9397L56.3224 77.773L55.6977 79.286Z"/>
<path fill-rule="evenodd" clip-rule="evenodd" d="M26.1024 81.816C26.4091 82.1533 26.8691 82.322 27.4824 82.322C28.7397 82.322 29.3684 81.678 29.3684 80.39V71.512H29.4604L39.6724 80.942C40.1631 81.402 40.5771 81.7547 40.9144 82C41.2518 82.2147 41.6964 82.322 42.2484 82.322C42.7084 82.322 43.0764 82.184 43.3524 81.908C43.6591 81.632 43.8124 81.2947 43.8124 80.896C43.8124 80.4973 43.5977 80.0833 43.1684 79.654L33.337 70.4034L42.2944 61.898C42.6624 61.4687 42.8464 61.07 42.8464 60.702C42.8771 60.3033 42.7544 59.9813 42.4784 59.736C42.2024 59.46 41.8191 59.322 41.3284 59.322C40.7764 59.322 40.3317 59.4293 39.9944 59.644C39.6877 59.8587 39.3197 60.1653 38.8904 60.564L29.4604 69.58H29.3684V51.134C29.3684 50.5207 29.1997 50.0607 28.8624 49.754C28.5251 49.4167 28.0651 49.248 27.4824 49.248C26.8691 49.248 26.4091 49.4167 26.1024 49.754C25.7957 50.0607 25.6424 50.5207 25.6424 51.134V80.39C25.6424 81.0033 25.7957 81.4787 26.1024 81.816ZM32.2664 71.42L33.337 70.4034L32.2664 69.396V71.42Z"/>
<path d="M32.2664 69.396V71.42L33.337 70.4034L32.2664 69.396Z"/>
<path fill-rule="evenodd" clip-rule="evenodd" d="M147.705 81.54C149.024 82.184 150.511 82.506 152.167 82.506C153.363 82.506 154.421 82.3067 155.341 81.908C156.261 81.4787 157.013 80.896 157.595 80.16C157.964 79.6987 158.256 79.1874 158.469 78.6261V78.872C158.469 80.0067 158.745 80.8807 159.297 81.494C159.88 82.1073 160.693 82.414 161.735 82.414C162.778 82.414 163.575 82.1073 164.127 81.494C164.679 80.8807 164.955 80.0067 164.955 78.872V68.66C164.955 66.4213 164.572 64.5967 163.805 63.186C163.039 61.7447 161.889 60.6867 160.355 60.012C158.853 59.3067 156.921 58.954 154.559 58.954C153.486 58.954 152.305 59.0613 151.017 59.276C149.76 59.4907 148.411 59.8893 146.969 60.472C146.264 60.7173 145.758 61.1007 145.451 61.622C145.145 62.1127 144.991 62.634 144.991 63.186C144.991 63.7073 145.129 64.198 145.405 64.658C145.681 65.0873 146.08 65.394 146.601 65.578C147.123 65.7313 147.721 65.6547 148.395 65.348C149.561 64.888 150.619 64.566 151.569 64.382C152.551 64.1673 153.455 64.06 154.283 64.06C155.755 64.06 156.798 64.3513 157.411 64.934C158.025 65.486 158.331 66.4367 158.331 67.786V68.568H156.675C153.486 68.568 150.925 68.7827 148.993 69.212C147.061 69.6107 145.666 70.3007 144.807 71.282C143.949 72.2327 143.519 73.536 143.519 75.192C143.519 76.572 143.887 77.814 144.623 78.918C145.359 80.022 146.387 80.896 147.705 81.54ZM158.331 72.156H159.113V68.568H158.331V72.156ZM158.331 72.156V73.076C158.331 73.996 158.132 74.824 157.733 75.56C157.335 76.2653 156.783 76.8327 156.077 77.262C155.403 77.6607 154.621 77.86 153.731 77.86C152.597 77.86 151.723 77.584 151.109 77.032C150.527 76.48 150.235 75.7747 150.235 74.916C150.235 74.2107 150.435 73.6587 150.833 73.26C151.263 72.8613 151.953 72.5853 152.903 72.432C153.885 72.248 155.157 72.156 156.721 72.156H158.331Z"/>
<path d="M159.113 72.156V68.568H158.331V72.156H159.113Z"/>
<path fill-rule="evenodd" clip-rule="evenodd" d="M124.115 81.08C126.047 82.0307 128.347 82.506 131.015 82.506C132.242 82.506 133.499 82.3527 134.787 82.046C136.106 81.77 137.286 81.3407 138.329 80.758C138.973 80.4207 139.433 80.0067 139.709 79.516C139.985 78.9947 140.092 78.4733 140.031 77.952C140 77.4307 139.832 76.9707 139.525 76.572C139.218 76.1733 138.789 75.928 138.237 75.836C137.685 75.7133 137.056 75.8207 136.351 76.158C135.523 76.5567 134.634 76.848 133.683 77.032C132.732 77.216 131.889 77.308 131.153 77.308C129.006 77.308 127.381 76.756 126.277 75.652C125.484 74.8366 124.984 73.6866 124.777 72.202H138.329C139.034 72.202 139.571 72.064 139.939 71.788C140.307 71.4813 140.491 71.0367 140.491 70.454C140.491 68.706 140.246 67.1267 139.755 65.716C139.264 64.2747 138.544 63.0633 137.593 62.082C136.642 61.07 135.508 60.3033 134.189 59.782C132.87 59.23 131.398 58.954 129.773 58.954C127.534 58.954 125.526 59.46 123.747 60.472C121.999 61.4533 120.634 62.8333 119.653 64.612C118.672 66.36 118.181 68.3993 118.181 70.73C118.181 73.122 118.687 75.2073 119.699 76.986C120.742 78.734 122.214 80.0987 124.115 81.08ZM124.764 68.614H134.724C134.671 67.6403 134.492 66.8123 134.189 66.13C133.821 65.2713 133.284 64.6273 132.579 64.198C131.904 63.7687 131.061 63.554 130.049 63.554C128.914 63.554 127.948 63.8147 127.151 64.336C126.354 64.8573 125.74 65.6087 125.311 66.59C125.049 67.1901 124.866 67.8648 124.764 68.614ZM124.667 70.132V70.5C124.667 71.0827 124.701 71.627 124.768 72.133C124.771 72.1561 124.774 72.1791 124.777 72.202H123.885V68.614H124.764C124.7 69.0899 124.667 69.5959 124.667 70.132Z"/>
<path d="M123.885 68.614V72.202H124.777L124.768 72.133C124.701 71.627 124.667 71.0827 124.667 70.5V70.132C124.667 69.5959 124.7 69.0899 124.764 68.614H123.885Z"/>
<path fill-rule="evenodd" clip-rule="evenodd" d="M221.641 81.08C223.573 82.0307 225.873 82.506 228.541 82.506C229.767 82.506 231.025 82.3527 232.313 82.046C233.631 81.77 234.812 81.3407 235.855 80.758C236.499 80.4207 236.959 80.0067 237.235 79.516C237.511 78.9947 237.618 78.4733 237.557 77.952C237.526 77.4307 237.357 76.9707 237.051 76.572C236.744 76.1733 236.315 75.928 235.763 75.836C235.211 75.7133 234.582 75.8207 233.877 76.158C233.049 76.5567 232.159 76.848 231.209 77.032C230.258 77.216 229.415 77.308 228.679 77.308C226.532 77.308 224.907 76.756 223.803 75.652C223.01 74.8366 222.51 73.6866 222.303 72.202H235.855C236.56 72.202 237.097 72.064 237.465 71.788C237.833 71.4813 238.017 71.0367 238.017 70.454C238.017 68.706 237.771 67.1267 237.281 65.716C236.79 64.2747 236.069 63.0633 235.119 62.082C234.168 61.07 233.033 60.3033 231.715 59.782C230.396 59.23 228.924 58.954 227.299 58.954C225.06 58.954 223.051 59.46 221.273 60.472C219.525 61.4533 218.16 62.8333 217.179 64.612C216.197 66.36 215.707 68.3993 215.707 70.73C215.707 73.122 216.213 75.2073 217.225 76.986C218.267 78.734 219.739 80.0987 221.641 81.08ZM222.29 68.614H232.249C232.196 67.6403 232.018 66.8123 231.715 66.13C231.347 65.2713 230.81 64.6273 230.105 64.198C229.43 63.7687 228.587 63.554 227.575 63.554C226.44 63.554 225.474 63.8147 224.677 64.336C223.879 64.8573 223.266 65.6087 222.837 66.59C222.574 67.1901 222.392 67.8648 222.29 68.614ZM222.193 70.132V70.5C222.193 71.0827 222.226 71.627 222.293 72.133C222.296 72.1561 222.299 72.1791 222.303 72.202H221.411V68.614H222.29C222.225 69.0899 222.193 69.596 222.193 70.132Z"/>
<path d="M221.411 68.614V72.202H222.303L222.293 72.133C222.226 71.627 222.193 71.0827 222.193 70.5V70.132C222.193 69.596 222.225 69.0899 222.29 68.614H221.411Z"/>
<path fill-rule="evenodd" clip-rule="evenodd" d="M242.977 81.494C243.59 82.1073 244.479 82.414 245.645 82.414C246.779 82.414 247.638 82.1073 248.221 81.494C248.834 80.8807 249.141 80.0067 249.141 78.872V70.316C249.141 68.6907 249.555 67.4487 250.383 66.59C251.241 65.7313 252.545 65.2253 254.293 65.072L255.351 64.98C256.393 64.8573 257.129 64.52 257.559 63.968C258.019 63.416 258.218 62.6647 258.157 61.714C258.126 60.702 257.896 59.9813 257.467 59.552C257.068 59.092 256.485 58.8927 255.719 58.954C253.725 59.0767 252.1 59.644 250.843 60.656C249.968 61.3598 249.309 62.2638 248.865 63.3679V62.542C248.865 61.4073 248.573 60.5487 247.991 59.966C247.408 59.3527 246.565 59.046 245.461 59.046C244.387 59.046 243.544 59.3527 242.931 59.966C242.348 60.5487 242.057 61.4073 242.057 62.542V78.872C242.057 80.0067 242.363 80.8807 242.977 81.494ZM248.405 64.934C248.508 64.4165 248.647 63.9318 248.821 63.4798C248.835 63.4423 248.85 63.405 248.865 63.3679V64.934H248.405Z"/>
<path d="M248.405 64.934H248.865V63.3679C248.85 63.405 248.835 63.4423 248.821 63.4798C248.647 63.9318 248.508 64.4165 248.405 64.934Z"/>
<path fill-rule="evenodd" clip-rule="evenodd" d="M190.327 81.494C190.94 82.1073 191.814 82.414 192.949 82.414C195.249 82.414 196.399 81.2333 196.399 78.872V69.396C196.399 67.8627 196.828 66.636 197.687 65.716C198.576 64.796 199.757 64.336 201.229 64.336C202.394 64.336 203.253 64.6887 203.805 65.394C204.388 66.0687 204.679 67.188 204.679 68.752V78.872C204.679 80.0067 204.97 80.8807 205.553 81.494C206.166 82.1073 207.025 82.414 208.129 82.414C209.264 82.414 210.122 82.1073 210.705 81.494C211.318 80.8807 211.625 80.0067 211.625 78.872V68.43C211.625 66.2833 211.334 64.52 210.751 63.14C210.168 61.7293 209.294 60.6867 208.129 60.012C206.964 59.3067 205.476 58.954 203.667 58.954C201.888 58.954 200.294 59.368 198.883 60.196C197.875 60.7784 197.047 61.5489 196.399 62.5076V52.698C196.399 51.5327 196.092 50.6587 195.479 50.076C194.896 49.4627 194.053 49.156 192.949 49.156C191.814 49.156 190.94 49.4627 190.327 50.076C189.744 50.6587 189.453 51.5327 189.453 52.698V78.872C189.453 80.0067 189.744 80.8807 190.327 81.494ZM195.755 63.646C195.931 63.2703 196.129 62.9167 196.347 62.5851C196.364 62.5591 196.382 62.5333 196.399 62.5076V63.646H195.755Z"/>
<path d="M195.755 63.646H196.399V62.5076C196.382 62.5333 196.364 62.5591 196.347 62.5851C196.129 62.9167 195.931 63.2703 195.755 63.646Z"/>
</mask>
<path d="M11.0399 82.414C9.65993 82.414 8.2646 82.2453 6.85393 81.908C5.47393 81.5707 4.18593 80.988 2.98993 80.16C2.68326 79.9453 2.4686 79.7 2.34593 79.424C2.22326 79.1173 2.17726 78.826 2.20793 78.55C2.26926 78.2433 2.39193 77.9827 2.57593 77.768C2.7906 77.5533 3.03593 77.4307 3.31193 77.4C3.6186 77.3387 3.95593 77.4 4.32393 77.584C5.51993 78.32 6.66993 78.8413 7.77393 79.148C8.9086 79.424 10.0279 79.562 11.1319 79.562C12.8799 79.562 14.1986 79.24 15.0879 78.596C15.9773 77.952 16.4219 77.078 16.4219 75.974C16.4219 75.1153 16.1306 74.4407 15.5479 73.95C14.9653 73.4287 14.0453 73.03 12.7879 72.754L8.60193 71.834C6.66993 71.4353 5.2286 70.7453 4.27793 69.764C3.35793 68.7827 2.89793 67.51 2.89793 65.946C2.89793 64.566 3.2506 63.3853 3.95593 62.404C4.69193 61.392 5.71926 60.61 7.03793 60.058C8.3566 59.506 9.88993 59.23 11.6379 59.23C12.9873 59.23 14.2599 59.414 15.4559 59.782C16.6826 60.1193 17.7866 60.6713 18.7679 61.438C19.0746 61.6527 19.2739 61.9133 19.3659 62.22C19.4886 62.496 19.5039 62.7873 19.4119 63.094C19.3506 63.37 19.2126 63.6153 18.9979 63.83C18.7833 64.014 18.5226 64.1213 18.2159 64.152C17.9093 64.1827 17.5873 64.0907 17.2499 63.876C16.3299 63.2627 15.3946 62.818 14.4439 62.542C13.4933 62.2353 12.5579 62.082 11.6379 62.082C9.9206 62.082 8.61726 62.4193 7.72793 63.094C6.8386 63.7687 6.39393 64.658 6.39393 65.762C6.39393 66.6207 6.66993 67.326 7.22193 67.878C7.77393 68.43 8.6326 68.8287 9.79793 69.074L13.9839 69.948C15.9773 70.3773 17.4646 71.0673 18.4459 72.018C19.4579 72.938 19.9639 74.1953 19.9639 75.79C19.9639 77.814 19.1513 79.424 17.5259 80.62C15.9006 81.816 13.7386 82.414 11.0399 82.414Z" fill="white"/>
<path d="M181.223 82.506C179.107 82.506 177.328 82.1533 175.887 81.448C174.476 80.7427 173.418 79.7153 172.713 78.366C172.038 77.0167 171.701 75.3147 171.701 73.26V64.612H169.769C168.91 64.612 168.235 64.382 167.745 63.922C167.285 63.462 167.055 62.8333 167.055 62.036C167.055 61.1773 167.285 60.5333 167.745 60.104C168.235 59.644 168.91 59.414 169.769 59.414H171.701V55.918C171.701 54.7527 172.007 53.8787 172.621 53.296C173.234 52.6827 174.093 52.376 175.197 52.376C176.331 52.376 177.19 52.6827 177.773 53.296C178.355 53.8787 178.647 54.7527 178.647 55.918V59.414H183.017C183.875 59.414 184.535 59.644 184.995 60.104C185.455 60.5333 185.685 61.1773 185.685 62.036C185.685 62.8333 185.455 63.462 184.995 63.922C184.535 64.382 183.875 64.612 183.017 64.612H178.647V72.984C178.647 74.272 178.938 75.238 179.521 75.882C180.134 76.526 181.1 76.848 182.419 76.848C182.879 76.848 183.308 76.802 183.707 76.71C184.105 76.618 184.473 76.5567 184.811 76.526C185.24 76.4953 185.593 76.6333 185.869 76.94C186.145 77.216 186.283 77.8447 186.283 78.826C186.283 79.562 186.16 80.206 185.915 80.758C185.669 81.31 185.24 81.7087 184.627 81.954C184.228 82.1073 183.676 82.23 182.971 82.322C182.296 82.4447 181.713 82.506 181.223 82.506Z" fill="#5AC8E8"/>
<path fill-rule="evenodd" clip-rule="evenodd" d="M80.9366 81.724C81.5499 82.184 82.3472 82.414 83.3286 82.414C84.3099 82.414 85.0766 82.184 85.6286 81.724C86.2112 81.2333 86.6866 80.5127 87.0546 79.562L93.8597 60.5076L100.579 79.516C100.947 80.4973 101.422 81.2333 102.005 81.724C102.587 82.184 103.369 82.414 104.351 82.414C105.363 82.414 106.16 82.184 106.743 81.724C107.325 81.2333 107.785 80.5127 108.123 79.562L117.507 53.388C117.936 52.2227 117.875 51.226 117.323 50.398C116.771 49.57 115.897 49.156 114.701 49.156C113.75 49.156 112.999 49.4013 112.447 49.892C111.895 50.352 111.465 51.0573 111.159 52.008L104.285 72.097L97.4966 52.1C97.1286 51.088 96.6839 50.352 96.1626 49.892C95.6412 49.4013 94.9512 49.156 94.0926 49.156C93.2032 49.156 92.4826 49.4013 91.9306 49.892C91.4092 50.352 90.9646 51.0727 90.5966 52.054L83.6088 71.7321L76.9806 52.008C76.6432 51.0267 76.1986 50.306 75.6466 49.846C75.1252 49.386 74.3739 49.156 73.3926 49.156C71.9819 49.156 70.9852 49.57 70.4026 50.398C69.8506 51.226 69.7739 52.2227 70.1726 53.388L79.4646 79.516C79.8326 80.4973 80.3232 81.2333 80.9366 81.724ZM93.3106 58.954L93.8597 60.5076L94.4146 58.954H93.3106Z" fill="#5AC8E8"/>
<path d="M94.4146 58.954H93.3106L93.8597 60.5076L94.4146 58.954Z" fill="#5AC8E8"/>
<path fill-rule="evenodd" clip-rule="evenodd" d="M51.7877 90.234C52.0637 90.4793 52.4317 90.602 52.8917 90.602C53.413 90.602 53.8117 90.4947 54.0877 90.28C54.3943 90.0653 54.6703 89.682 54.9157 89.13L66.6917 61.898C66.8757 61.438 66.937 61.024 66.8757 60.656C66.845 60.2573 66.6917 59.9353 66.4157 59.69C66.1703 59.4447 65.8023 59.322 65.3117 59.322C64.7903 59.322 64.3917 59.4293 64.1157 59.644C63.8397 59.8587 63.579 60.242 63.3337 60.794L56.3224 77.773L49.3957 60.794C49.181 60.242 48.9357 59.8587 48.6597 59.644C48.3837 59.4293 48.0003 59.322 47.5097 59.322C46.9577 59.322 46.5283 59.4447 46.2217 59.69C45.915 59.9353 45.731 60.2573 45.6697 60.656C45.6083 61.0547 45.6697 61.484 45.8537 61.944L54.3333 81.6415L51.5117 87.98C51.3277 88.4093 51.251 88.8233 51.2817 89.222C51.343 89.6513 51.5117 89.9887 51.7877 90.234ZM56.9397 79.286L56.3224 77.773L55.6977 79.286H56.9397Z" fill="white"/>
<path d="M55.6977 79.286H56.9397L56.3224 77.773L55.6977 79.286Z" fill="white"/>
<path fill-rule="evenodd" clip-rule="evenodd" d="M26.1024 81.816C26.4091 82.1533 26.8691 82.322 27.4824 82.322C28.7397 82.322 29.3684 81.678 29.3684 80.39V71.512H29.4604L39.6724 80.942C40.1631 81.402 40.5771 81.7547 40.9144 82C41.2518 82.2147 41.6964 82.322 42.2484 82.322C42.7084 82.322 43.0764 82.184 43.3524 81.908C43.6591 81.632 43.8124 81.2947 43.8124 80.896C43.8124 80.4973 43.5977 80.0833 43.1684 79.654L33.337 70.4034L42.2944 61.898C42.6624 61.4687 42.8464 61.07 42.8464 60.702C42.8771 60.3033 42.7544 59.9813 42.4784 59.736C42.2024 59.46 41.8191 59.322 41.3284 59.322C40.7764 59.322 40.3317 59.4293 39.9944 59.644C39.6877 59.8587 39.3197 60.1653 38.8904 60.564L29.4604 69.58H29.3684V51.134C29.3684 50.5207 29.1997 50.0607 28.8624 49.754C28.5251 49.4167 28.0651 49.248 27.4824 49.248C26.8691 49.248 26.4091 49.4167 26.1024 49.754C25.7957 50.0607 25.6424 50.5207 25.6424 51.134V80.39C25.6424 81.0033 25.7957 81.4787 26.1024 81.816ZM32.2664 71.42L33.337 70.4034L32.2664 69.396V71.42Z" fill="white"/>
<path d="M32.2664 69.396V71.42L33.337 70.4034L32.2664 69.396Z" fill="white"/>
<path fill-rule="evenodd" clip-rule="evenodd" d="M147.705 81.54C149.024 82.184 150.511 82.506 152.167 82.506C153.363 82.506 154.421 82.3067 155.341 81.908C156.261 81.4787 157.013 80.896 157.595 80.16C157.964 79.6987 158.256 79.1874 158.469 78.6261V78.872C158.469 80.0067 158.745 80.8807 159.297 81.494C159.88 82.1073 160.693 82.414 161.735 82.414C162.778 82.414 163.575 82.1073 164.127 81.494C164.679 80.8807 164.955 80.0067 164.955 78.872V68.66C164.955 66.4213 164.572 64.5967 163.805 63.186C163.039 61.7447 161.889 60.6867 160.355 60.012C158.853 59.3067 156.921 58.954 154.559 58.954C153.486 58.954 152.305 59.0613 151.017 59.276C149.76 59.4907 148.411 59.8893 146.969 60.472C146.264 60.7173 145.758 61.1007 145.451 61.622C145.145 62.1127 144.991 62.634 144.991 63.186C144.991 63.7073 145.129 64.198 145.405 64.658C145.681 65.0873 146.08 65.394 146.601 65.578C147.123 65.7313 147.721 65.6547 148.395 65.348C149.561 64.888 150.619 64.566 151.569 64.382C152.551 64.1673 153.455 64.06 154.283 64.06C155.755 64.06 156.798 64.3513 157.411 64.934C158.025 65.486 158.331 66.4367 158.331 67.786V68.568H156.675C153.486 68.568 150.925 68.7827 148.993 69.212C147.061 69.6107 145.666 70.3007 144.807 71.282C143.949 72.2327 143.519 73.536 143.519 75.192C143.519 76.572 143.887 77.814 144.623 78.918C145.359 80.022 146.387 80.896 147.705 81.54ZM158.331 72.156H159.113V68.568H158.331V72.156ZM158.331 72.156V73.076C158.331 73.996 158.132 74.824 157.733 75.56C157.335 76.2653 156.783 76.8327 156.077 77.262C155.403 77.6607 154.621 77.86 153.731 77.86C152.597 77.86 151.723 77.584 151.109 77.032C150.527 76.48 150.235 75.7747 150.235 74.916C150.235 74.2107 150.435 73.6587 150.833 73.26C151.263 72.8613 151.953 72.5853 152.903 72.432C153.885 72.248 155.157 72.156 156.721 72.156H158.331Z" fill="#5AC8E8"/>
<path d="M159.113 72.156V68.568H158.331V72.156H159.113Z" fill="#5AC8E8"/>
<path fill-rule="evenodd" clip-rule="evenodd" d="M124.115 81.08C126.047 82.0307 128.347 82.506 131.015 82.506C132.242 82.506 133.499 82.3527 134.787 82.046C136.106 81.77 137.286 81.3407 138.329 80.758C138.973 80.4207 139.433 80.0067 139.709 79.516C139.985 78.9947 140.092 78.4733 140.031 77.952C140 77.4307 139.832 76.9707 139.525 76.572C139.218 76.1733 138.789 75.928 138.237 75.836C137.685 75.7133 137.056 75.8207 136.351 76.158C135.523 76.5567 134.634 76.848 133.683 77.032C132.732 77.216 131.889 77.308 131.153 77.308C129.006 77.308 127.381 76.756 126.277 75.652C125.484 74.8366 124.984 73.6866 124.777 72.202H138.329C139.034 72.202 139.571 72.064 139.939 71.788C140.307 71.4813 140.491 71.0367 140.491 70.454C140.491 68.706 140.246 67.1267 139.755 65.716C139.264 64.2747 138.544 63.0633 137.593 62.082C136.642 61.07 135.508 60.3033 134.189 59.782C132.87 59.23 131.398 58.954 129.773 58.954C127.534 58.954 125.526 59.46 123.747 60.472C121.999 61.4533 120.634 62.8333 119.653 64.612C118.672 66.36 118.181 68.3993 118.181 70.73C118.181 73.122 118.687 75.2073 119.699 76.986C120.742 78.734 122.214 80.0987 124.115 81.08ZM124.764 68.614H134.724C134.671 67.6403 134.492 66.8123 134.189 66.13C133.821 65.2713 133.284 64.6273 132.579 64.198C131.904 63.7687 131.061 63.554 130.049 63.554C128.914 63.554 127.948 63.8147 127.151 64.336C126.354 64.8573 125.74 65.6087 125.311 66.59C125.049 67.1901 124.866 67.8648 124.764 68.614ZM124.667 70.132V70.5C124.667 71.0827 124.701 71.627 124.768 72.133C124.771 72.1561 124.774 72.1791 124.777 72.202H123.885V68.614H124.764C124.7 69.0899 124.667 69.5959 124.667 70.132Z" fill="#5AC8E8"/>
<path d="M123.885 68.614V72.202H124.777L124.768 72.133C124.701 71.627 124.667 71.0827 124.667 70.5V70.132C124.667 69.5959 124.7 69.0899 124.764 68.614H123.885Z" fill="#5AC8E8"/>
<path fill-rule="evenodd" clip-rule="evenodd" d="M221.641 81.08C223.573 82.0307 225.873 82.506 228.541 82.506C229.767 82.506 231.025 82.3527 232.313 82.046C233.631 81.77 234.812 81.3407 235.855 80.758C236.499 80.4207 236.959 80.0067 237.235 79.516C237.511 78.9947 237.618 78.4733 237.557 77.952C237.526 77.4307 237.357 76.9707 237.051 76.572C236.744 76.1733 236.315 75.928 235.763 75.836C235.211 75.7133 234.582 75.8207 233.877 76.158C233.049 76.5567 232.159 76.848 231.209 77.032C230.258 77.216 229.415 77.308 228.679 77.308C226.532 77.308 224.907 76.756 223.803 75.652C223.01 74.8366 222.51 73.6866 222.303 72.202H235.855C236.56 72.202 237.097 72.064 237.465 71.788C237.833 71.4813 238.017 71.0367 238.017 70.454C238.017 68.706 237.771 67.1267 237.281 65.716C236.79 64.2747 236.069 63.0633 235.119 62.082C234.168 61.07 233.033 60.3033 231.715 59.782C230.396 59.23 228.924 58.954 227.299 58.954C225.06 58.954 223.051 59.46 221.273 60.472C219.525 61.4533 218.16 62.8333 217.179 64.612C216.197 66.36 215.707 68.3993 215.707 70.73C215.707 73.122 216.213 75.2073 217.225 76.986C218.267 78.734 219.739 80.0987 221.641 81.08ZM222.29 68.614H232.249C232.196 67.6403 232.018 66.8123 231.715 66.13C231.347 65.2713 230.81 64.6273 230.105 64.198C229.43 63.7687 228.587 63.554 227.575 63.554C226.44 63.554 225.474 63.8147 224.677 64.336C223.879 64.8573 223.266 65.6087 222.837 66.59C222.574 67.1901 222.392 67.8648 222.29 68.614ZM222.193 70.132V70.5C222.193 71.0827 222.226 71.627 222.293 72.133C222.296 72.1561 222.299 72.1791 222.303 72.202H221.411V68.614H222.29C222.225 69.0899 222.193 69.596 222.193 70.132Z" fill="#5AC8E8"/>
<path d="M221.411 68.614V72.202H222.303L222.293 72.133C222.226 71.627 222.193 71.0827 222.193 70.5V70.132C222.193 69.596 222.225 69.0899 222.29 68.614H221.411Z" fill="#5AC8E8"/>
<path fill-rule="evenodd" clip-rule="evenodd" d="M242.977 81.494C243.59 82.1073 244.479 82.414 245.645 82.414C246.779 82.414 247.638 82.1073 248.221 81.494C248.834 80.8807 249.141 80.0067 249.141 78.872V70.316C249.141 68.6907 249.555 67.4487 250.383 66.59C251.241 65.7313 252.545 65.2253 254.293 65.072L255.351 64.98C256.393 64.8573 257.129 64.52 257.559 63.968C258.019 63.416 258.218 62.6647 258.157 61.714C258.126 60.702 257.896 59.9813 257.467 59.552C257.068 59.092 256.485 58.8927 255.719 58.954C253.725 59.0767 252.1 59.644 250.843 60.656C249.968 61.3598 249.309 62.2638 248.865 63.3679V62.542C248.865 61.4073 248.573 60.5487 247.991 59.966C247.408 59.3527 246.565 59.046 245.461 59.046C244.387 59.046 243.544 59.3527 242.931 59.966C242.348 60.5487 242.057 61.4073 242.057 62.542V78.872C242.057 80.0067 242.363 80.8807 242.977 81.494ZM248.405 64.934C248.508 64.4165 248.647 63.9318 248.821 63.4798C248.835 63.4423 248.85 63.405 248.865 63.3679V64.934H248.405Z" fill="#5AC8E8"/>
<path d="M248.405 64.934H248.865V63.3679C248.85 63.405 248.835 63.4423 248.821 63.4798C248.647 63.9318 248.508 64.4165 248.405 64.934Z" fill="#5AC8E8"/>
<path fill-rule="evenodd" clip-rule="evenodd" d="M190.327 81.494C190.94 82.1073 191.814 82.414 192.949 82.414C195.249 82.414 196.399 81.2333 196.399 78.872V69.396C196.399 67.8627 196.828 66.636 197.687 65.716C198.576 64.796 199.757 64.336 201.229 64.336C202.394 64.336 203.253 64.6887 203.805 65.394C204.388 66.0687 204.679 67.188 204.679 68.752V78.872C204.679 80.0067 204.97 80.8807 205.553 81.494C206.166 82.1073 207.025 82.414 208.129 82.414C209.264 82.414 210.122 82.1073 210.705 81.494C211.318 80.8807 211.625 80.0067 211.625 78.872V68.43C211.625 66.2833 211.334 64.52 210.751 63.14C210.168 61.7293 209.294 60.6867 208.129 60.012C206.964 59.3067 205.476 58.954 203.667 58.954C201.888 58.954 200.294 59.368 198.883 60.196C197.875 60.7784 197.047 61.5489 196.399 62.5076V52.698C196.399 51.5327 196.092 50.6587 195.479 50.076C194.896 49.4627 194.053 49.156 192.949 49.156C191.814 49.156 190.94 49.4627 190.327 50.076C189.744 50.6587 189.453 51.5327 189.453 52.698V78.872C189.453 80.0067 189.744 80.8807 190.327 81.494ZM195.755 63.646C195.931 63.2703 196.129 62.9167 196.347 62.5851C196.364 62.5591 196.382 62.5333 196.399 62.5076V63.646H195.755Z" fill="#5AC8E8"/>
<path d="M195.755 63.646H196.399V62.5076C196.382 62.5333 196.364 62.5591 196.347 62.5851C196.129 62.9167 195.931 63.2703 195.755 63.646Z" fill="#5AC8E8"/>
<path d="M32.2664 71.42H31.7664V72.5843L32.6107 71.7826L32.2664 71.42ZM32.2664 69.396L32.609 69.0319L31.7664 68.239V69.396H32.2664ZM54.6857 80.85H55.1857L54.2289 80.6467L54.6857 80.85ZM54.6857 82.46L54.2264 82.6577L55.1857 82.46H54.6857ZM56.9397 79.286V79.786H57.6837L57.4026 79.0971L56.9397 79.286ZM55.6977 79.286L55.2355 79.0952L54.9502 79.786H55.6977V79.286ZM84.5706 74.594V75.094H85.2661L85.0445 74.4347L84.5706 74.594ZM82.5926 74.594L82.1214 74.4267L81.8844 75.094H82.5926V74.594ZM105.133 74.594V75.094H105.83L105.606 74.4333L105.133 74.594ZM103.431 74.594L102.957 74.4321L102.731 75.094H103.431V74.594ZM93.3106 58.954V58.454H92.6035L92.8392 59.1206L93.3106 58.954ZM94.4146 58.954L94.8854 59.1222L95.1241 58.454H94.4146V58.954ZM123.885 72.202H123.385V72.702H123.885V72.202ZM123.885 68.614V68.114H123.385V68.614H123.885ZM135.477 68.614L135.806 68.9903L136.808 68.114H135.477V68.614ZM134.741 69.258H134.241V70.3599L135.07 69.6343L134.741 69.258ZM159.113 68.568H159.613V68.068H159.113V68.568ZM159.113 72.156V72.656H159.613V72.156H159.113ZM158.469 77.17L158.795 76.7904L157.969 76.0829V77.17H158.469ZM158.791 77.446L159.284 77.5329L159.333 77.252L159.117 77.0664L158.791 77.446ZM196.399 63.646V64.146H196.899V63.646H196.399ZM195.755 63.646L195.302 63.4336L194.968 64.146H195.755V63.646ZM221.411 72.202H220.911V72.702H221.411V72.202ZM221.411 68.614V68.114H220.911V68.614H221.411ZM233.003 68.614L233.332 68.9903L234.333 68.114H233.003V68.614ZM232.267 69.258H231.767V70.3599L232.596 69.6343L232.267 69.258ZM248.865 64.934V65.434H249.365V64.934H248.865ZM248.405 64.934L247.914 64.8359L247.795 65.434H248.405V64.934ZM93.8597 60.5076L93.3883 60.6742L93.8573 62.001L94.3306 60.6758L93.8597 60.5076ZM104.285 72.097L104.758 71.9363L104.287 70.5471L103.812 71.9352L104.285 72.097ZM83.6088 71.7321L84.0828 71.5728L83.6219 70.2012L83.1377 71.5648L83.6088 71.7321ZM56.3224 77.773L56.7854 77.5842L56.3252 76.4562L55.8603 77.5822L56.3224 77.773ZM54.3333 81.6415L53.8765 81.4382L53.7875 81.6382L53.8741 81.8392L54.3333 81.6415ZM33.337 70.4034L33.6813 70.766L34.0649 70.4017L33.6797 70.0393L33.337 70.4034ZM158.469 78.6261H157.969L158.937 78.804L158.469 78.6261ZM158.331 68.568V68.068H157.831V68.568H158.331ZM158.331 72.156H157.831V72.656H158.331V72.156ZM124.764 68.614L125.26 68.6815L125.337 68.114H124.764V68.614ZM134.724 68.614V68.114H134.196L134.225 68.6414L134.724 68.614ZM222.29 68.614L222.785 68.6814L222.862 68.114H222.29V68.614ZM232.249 68.614V68.114H231.721L231.75 68.6414L232.249 68.614ZM248.865 63.3679H249.365L248.401 63.1813L248.865 63.3679ZM248.821 63.4798L249.287 63.6592L249.287 63.6592L248.821 63.4798ZM196.399 62.5076H196.899V60.8748L195.985 62.2276L196.399 62.5076ZM196.347 62.5851L196.765 62.8603L196.765 62.8602L196.347 62.5851ZM32.7664 71.42V69.396H31.7664V71.42H32.7664ZM54.1857 80.85V82.46H55.1857V80.85H54.1857ZM56.9397 78.786H55.6977V79.786H56.9397V78.786ZM84.5706 74.094H82.5926V75.094H84.5706V74.094ZM105.133 74.094H103.431V75.094H105.133V74.094ZM93.3106 59.454H94.4146V58.454H93.3106V59.454ZM124.385 72.202V68.614H123.385V72.202H124.385ZM135.148 68.2377L134.412 68.8817L135.07 69.6343L135.806 68.9903L135.148 68.2377ZM124.167 70.132V70.5H125.167V70.132H124.167ZM158.613 68.568V72.156H159.613V68.568H158.613ZM158.144 77.5496L158.466 77.8256L159.117 77.0664L158.795 76.7904L158.144 77.5496ZM196.399 63.146H195.755V64.146H196.399V63.146ZM221.911 72.202V68.614H220.911V72.202H221.911ZM232.673 68.2377L231.937 68.8817L232.596 69.6343L233.332 68.9903L232.673 68.2377ZM221.693 70.132V70.5H222.693V70.132H221.693ZM248.865 64.434H248.405V65.434H248.865V64.434ZM92.8392 59.1206L93.3883 60.6742L94.3311 60.341L93.782 58.7874L92.8392 59.1206ZM94.3306 60.6758L94.8854 59.1222L93.9437 58.7858L93.3888 60.3394L94.3306 60.6758ZM83.0638 74.7613L84.08 71.8994L83.1377 71.5648L82.1214 74.4267L83.0638 74.7613ZM83.1349 71.8914L84.0966 74.7533L85.0445 74.4347L84.0828 71.5728L83.1349 71.8914ZM103.811 72.2578L104.659 74.7547L105.606 74.4333L104.758 71.9363L103.811 72.2578ZM103.904 74.7559L104.758 72.2589L103.812 71.9352L102.957 74.4321L103.904 74.7559ZM57.4026 79.0971L56.7854 77.5842L55.8595 77.9619L56.4767 79.4749L57.4026 79.0971ZM55.8603 77.5822L55.2355 79.0952L56.1598 79.4768L56.7846 77.9639L55.8603 77.5822ZM55.1449 82.2623L54.7926 81.4438L53.8741 81.8392L54.2264 82.6577L55.1449 82.2623ZM54.7901 81.8449L55.1424 81.0534L54.2289 80.6467L53.8765 81.4382L54.7901 81.8449ZM32.6107 71.7826L33.6813 70.766L32.9928 70.0408L31.9221 71.0574L32.6107 71.7826ZM33.6797 70.0393L32.609 69.0319L31.9238 69.7602L32.9944 70.7675L33.6797 70.0393ZM158.331 72.656H159.113V71.656H158.331V72.656ZM159.113 68.068H158.331V69.068H159.113V68.068ZM157.831 68.568V72.156H158.831V68.568H157.831ZM158.299 77.3591C158.231 77.7452 158.131 78.108 158.002 78.4483L158.937 78.804C159.09 78.4013 159.205 77.9773 159.284 77.5329L158.299 77.3591ZM158.969 78.6261V77.17H157.969V78.6261H158.969ZM124.167 70.5C124.167 71.1016 124.202 71.6681 124.272 72.1987L125.263 72.0673C125.2 71.5859 125.167 71.0637 125.167 70.5H124.167ZM124.777 71.702H123.885V72.702H124.777V71.702ZM123.885 69.114H124.764V68.114H123.885V69.114ZM124.269 68.5466C124.201 69.0472 124.167 69.5759 124.167 70.132H125.167C125.167 69.6159 125.198 69.1326 125.26 68.6815L124.269 68.5466ZM135.241 69.258C135.241 69.0281 135.235 68.8043 135.223 68.5866L134.225 68.6414C134.236 68.8397 134.241 69.0453 134.241 69.258H135.241ZM134.724 69.114H135.477V68.114H134.724V69.114ZM221.693 70.5C221.693 71.1016 221.727 71.6681 221.797 72.1987L222.789 72.0673C222.725 71.5859 222.693 71.0637 222.693 70.5H221.693ZM222.303 71.702H221.411V72.702H222.303V71.702ZM221.411 69.114H222.29V68.114H221.411V69.114ZM221.794 68.5466C221.726 69.0472 221.693 69.576 221.693 70.132H222.693C222.693 69.616 222.724 69.1326 222.785 68.6814L221.794 68.5466ZM232.767 69.258C232.767 69.0281 232.761 68.8043 232.749 68.5866L231.75 68.6414C231.761 68.8397 231.767 69.0453 231.767 69.258H232.767ZM232.249 69.114H233.003V68.114H232.249V69.114ZM248.895 65.0321C248.993 64.5399 249.124 64.0826 249.287 63.6592L248.354 63.3003C248.169 63.7809 248.023 64.2931 247.914 64.8359L248.895 65.0321ZM249.287 63.6592C249.301 63.6241 249.315 63.5893 249.328 63.5546L248.401 63.1813C248.385 63.2207 248.369 63.2604 248.354 63.3003L249.287 63.6592ZM248.365 63.3679V64.934H249.365V63.3679H248.365ZM196.208 63.8585C196.374 63.5035 196.56 63.1709 196.765 62.8603L195.93 62.31C195.698 62.6625 195.489 63.0372 195.302 63.4336L196.208 63.8585ZM196.765 62.8602C196.781 62.8359 196.797 62.8117 196.813 62.7876L195.985 62.2276C195.966 62.2549 195.948 62.2824 195.93 62.3101L196.765 62.8602ZM195.899 62.5076V63.646H196.899V62.5076H195.899ZM6.85393 81.908L6.61647 82.8794L6.62136 82.8806L6.85393 81.908ZM2.98993 80.16L2.41646 80.9793L2.42072 80.9822L2.98993 80.16ZM2.34593 79.424L1.41745 79.7954L1.42446 79.8129L1.43212 79.8301L2.34593 79.424ZM2.20793 78.55L1.22735 78.3539L1.21884 78.3964L1.21405 78.4396L2.20793 78.55ZM2.57593 77.768L1.86882 77.0609L1.84167 77.0881L1.81667 77.1172L2.57593 77.768ZM3.31193 77.4L3.42236 78.3939L3.46549 78.3891L3.50805 78.3806L3.31193 77.4ZM4.32393 77.584L4.84803 76.7323L4.81053 76.7093L4.77114 76.6896L4.32393 77.584ZM7.77393 79.148L7.50629 80.1115L7.52187 80.1159L7.53758 80.1197L7.77393 79.148ZM15.0879 78.596L14.5014 77.7861L14.5014 77.7861L15.0879 78.596ZM15.5479 73.95L14.8811 74.6953L14.8923 74.7053L14.9038 74.7149L15.5479 73.95ZM12.7879 72.754L12.5733 73.7307L12.5735 73.7308L12.7879 72.754ZM8.60193 71.834L8.81661 70.8572L8.80402 70.8546L8.60193 71.834ZM4.27793 69.764L3.54839 70.4479L3.55399 70.4539L3.55969 70.4598L4.27793 69.764ZM3.95593 62.404L3.14718 61.8158L3.14392 61.8204L3.95593 62.404ZM7.03793 60.058L7.42407 60.9804L7.42407 60.9804L7.03793 60.058ZM15.4559 59.782L15.1618 60.7378L15.1762 60.7422L15.1908 60.7462L15.4559 59.782ZM18.7679 61.438L18.1523 62.226L18.173 62.2422L18.1945 62.2572L18.7679 61.438ZM19.3659 62.22L18.4081 62.5074L18.4263 62.5681L18.4521 62.6261L19.3659 62.22ZM19.4119 63.094L18.4541 62.8067L18.4436 62.8415L18.4357 62.8771L19.4119 63.094ZM18.9979 63.83L19.6487 64.5893L19.6779 64.5643L19.705 64.5371L18.9979 63.83ZM18.2159 64.152L18.3154 65.147L18.3154 65.147L18.2159 64.152ZM17.2499 63.876L16.6952 64.7081L16.7041 64.714L16.7131 64.7197L17.2499 63.876ZM14.4439 62.542L14.1369 63.4937L14.151 63.4982L14.1651 63.5024L14.4439 62.542ZM7.72793 63.094L8.33232 63.8907L8.33232 63.8907L7.72793 63.094ZM7.22193 67.878L6.51482 68.5851L6.51482 68.5851L7.22193 67.878ZM9.79793 69.074L9.59192 70.0526L9.59355 70.0529L9.79793 69.074ZM13.9839 69.948L14.1945 68.9704L14.1883 68.9691L13.9839 69.948ZM18.4459 72.018L17.7501 72.7362L17.7615 72.7473L17.7733 72.7579L18.4459 72.018ZM26.1024 49.754L26.8095 50.4611L26.8263 50.4443L26.8424 50.4267L26.1024 49.754ZM28.8624 49.754L28.1553 50.4611L28.1721 50.4779L28.1897 50.4939L28.8624 49.754ZM29.3684 69.58H28.3684V70.58H29.3684V69.58ZM29.4604 69.58V70.58H29.8615L30.1515 70.3028L29.4604 69.58ZM38.8904 60.564L38.21 59.8312L38.2046 59.8362L38.1994 59.8412L38.8904 60.564ZM39.9944 59.644L39.4575 58.8003L39.439 58.8122L39.421 58.8248L39.9944 59.644ZM42.4784 59.736L41.7713 60.4431L41.7921 60.4639L41.8141 60.4834L42.4784 59.736ZM42.8464 60.702L41.8494 60.6253L41.8464 60.6636V60.702H42.8464ZM42.2944 61.898L42.983 62.6232L43.0202 62.5878L43.0537 62.5488L42.2944 61.898ZM43.1684 79.654L43.8755 78.9469L43.8648 78.9361L43.8537 78.9257L43.1684 79.654ZM43.3524 81.908L42.6835 81.1647L42.6639 81.1823L42.6453 81.2009L43.3524 81.908ZM40.9144 82L40.3262 82.8087L40.3514 82.827L40.3775 82.8437L40.9144 82ZM39.6724 80.942L40.3564 80.2124L40.3508 80.2073L39.6724 80.942ZM29.4604 71.512L30.1388 70.7773L29.8515 70.512H29.4604V71.512ZM29.3684 71.512V70.512H28.3684V71.512H29.3684ZM51.2817 89.222L50.2846 89.2987L50.2871 89.3312L50.2917 89.3634L51.2817 89.222ZM51.5117 87.98L50.598 87.5733L50.5925 87.5861L51.5117 87.98ZM45.8537 61.944L44.9252 62.3154L44.93 62.3275L44.9352 62.3394L45.8537 61.944ZM45.6697 60.656L46.658 60.8081L46.658 60.8081L45.6697 60.656ZM46.2217 59.69L46.8464 60.4709L46.8464 60.4709L46.2217 59.69ZM48.6597 59.644L49.2736 58.8547L49.2736 58.8547L48.6597 59.644ZM49.3957 60.794L48.4637 61.1565L48.4666 61.1641L48.4698 61.1717L49.3957 60.794ZM63.3337 60.794L62.4199 60.3879L62.4144 60.4L62.4094 60.4123L63.3337 60.794ZM64.1157 59.644L64.7296 60.4334L64.7296 60.4334L64.1157 59.644ZM66.4157 59.69L65.7086 60.3971L65.7293 60.4179L65.7513 60.4374L66.4157 59.69ZM66.8757 60.656L65.8786 60.7327L65.882 60.7768L65.8893 60.8204L66.8757 60.656ZM66.6917 61.898L67.6095 62.2949L67.615 62.2822L67.6201 62.2694L66.6917 61.898ZM54.9157 89.13L55.8295 89.5362L55.8335 89.5269L54.9157 89.13ZM54.0877 90.28L53.5142 89.4608L53.4936 89.4752L53.4737 89.4907L54.0877 90.28ZM80.9366 81.724L80.3119 82.5049L80.3241 82.5146L80.3366 82.524L80.9366 81.724ZM79.4646 79.516L78.5224 79.8511L78.5252 79.8591L78.5282 79.8671L79.4646 79.516ZM70.1726 53.388L69.2263 53.7117L69.2304 53.7231L70.1726 53.388ZM70.4026 50.398L69.5848 49.8225L69.5775 49.8328L69.5705 49.8433L70.4026 50.398ZM75.6466 49.846L74.9849 50.5958L74.9955 50.6052L75.0064 50.6142L75.6466 49.846ZM76.9806 52.008L77.9285 51.6895L77.9263 51.6829L76.9806 52.008ZM90.5966 52.054L89.6602 51.7029L89.6572 51.7111L89.6542 51.7194L90.5966 52.054ZM91.9306 49.892L92.5922 50.6419L92.5949 50.6394L91.9306 49.892ZM96.1626 49.892L95.4772 50.6202L95.4889 50.6312L95.501 50.6418L96.1626 49.892ZM97.4966 52.1L98.4435 51.7786L98.44 51.7684L98.4364 51.7583L97.4966 52.1ZM111.159 52.008L112.105 52.3317L112.108 52.3234L112.11 52.315L111.159 52.008ZM112.447 49.892L113.087 50.6602L113.099 50.65L113.111 50.6394L112.447 49.892ZM117.507 53.388L116.568 53.0423L116.565 53.0505L117.507 53.388ZM108.123 79.562L107.181 79.2245L107.18 79.2276L108.123 79.562ZM106.743 81.724L107.362 82.5089L107.375 82.4991L107.387 82.4889L106.743 81.724ZM102.005 81.724L101.36 82.4889L101.373 82.4991L101.385 82.5089L102.005 81.724ZM100.579 79.516L99.6357 79.8493L99.6389 79.8582L99.6422 79.8671L100.579 79.516ZM87.0546 79.562L87.9871 79.923L87.9919 79.9107L87.9963 79.8983L87.0546 79.562ZM85.6286 81.724L86.2688 82.4922L86.2727 82.4889L85.6286 81.724ZM124.115 81.08L123.656 81.9686L123.665 81.973L123.674 81.9773L124.115 81.08ZM119.699 76.986L118.83 77.4805L118.835 77.4895L118.84 77.4983L119.699 76.986ZM119.653 64.612L120.525 65.1016L120.529 65.0951L119.653 64.612ZM123.747 60.472L124.237 61.344L124.242 61.3412L123.747 60.472ZM134.189 59.782L133.803 60.7044L133.812 60.7083L133.821 60.712L134.189 59.782ZM137.593 62.082L136.864 62.7667L136.87 62.7723L136.875 62.7778L137.593 62.082ZM139.755 65.716L138.808 66.0383L138.811 66.0445L139.755 65.716ZM139.939 71.788L140.539 72.588L140.56 72.5726L140.579 72.5562L139.939 71.788ZM134.189 66.13L133.27 66.524L133.275 66.5361L134.189 66.13ZM132.579 64.198L132.042 65.0417L132.051 65.047L132.059 65.0522L132.579 64.198ZM127.151 64.336L127.698 65.173L127.698 65.173L127.151 64.336ZM125.311 66.59L126.227 66.9908L126.227 66.9908L125.311 66.59ZM126.277 75.652L125.56 76.3492L125.57 76.3591L126.277 75.652ZM133.683 77.032L133.873 78.0138L133.873 78.0138L133.683 77.032ZM136.351 76.158L135.92 75.2559L135.917 75.257L136.351 76.158ZM138.237 75.836L138.02 76.8122L138.046 76.818L138.073 76.8224L138.237 75.836ZM140.031 77.952L139.033 78.0107L139.035 78.0399L139.038 78.0689L140.031 77.952ZM139.709 79.516L140.581 80.0063L140.587 79.9952L140.593 79.9839L139.709 79.516ZM138.329 80.758L137.865 79.8722L137.853 79.8785L137.841 79.8851L138.329 80.758ZM134.787 82.046L134.582 81.0672L134.569 81.07L134.556 81.0732L134.787 82.046ZM147.705 81.54L148.144 80.6414L148.144 80.6414L147.705 81.54ZM144.623 78.918L143.791 79.4727L143.791 79.4727L144.623 78.918ZM144.807 71.282L145.549 71.9523L145.555 71.9464L145.56 71.9405L144.807 71.282ZM148.993 69.212L149.195 70.1914L149.203 70.1898L149.21 70.1882L148.993 69.212ZM152.903 72.432L153.062 73.4192L153.075 73.4172L153.088 73.4149L152.903 72.432ZM150.833 73.26L150.153 72.5272L150.139 72.5398L150.126 72.5529L150.833 73.26ZM151.109 77.032L150.421 77.758L150.431 77.7668L150.44 77.7753L151.109 77.032ZM156.077 77.262L156.586 78.123L156.597 78.1162L156.077 77.262ZM157.733 75.56L158.604 76.0521L158.608 76.0442L158.613 76.0363L157.733 75.56ZM157.411 64.934L156.722 65.659L156.732 65.6683L156.742 65.6773L157.411 64.934ZM151.569 64.382L151.759 65.3638L151.771 65.3615L151.783 65.3589L151.569 64.382ZM148.395 65.348L148.028 64.4179L148.004 64.4272L147.981 64.4376L148.395 65.348ZM146.601 65.578L146.268 66.521L146.294 66.5299L146.319 66.5374L146.601 65.578ZM145.405 64.658L144.548 65.1725L144.556 65.1858L144.564 65.1988L145.405 64.658ZM145.451 61.622L146.299 62.152L146.306 62.1406L146.313 62.129L145.451 61.622ZM146.969 60.472L147.298 61.4165L147.321 61.4084L147.344 61.3991L146.969 60.472ZM151.017 59.276L150.853 58.2896L150.849 58.2903L151.017 59.276ZM160.355 60.012L159.93 60.9172L159.941 60.9224L159.952 60.9273L160.355 60.012ZM163.805 63.186L162.922 63.6556L162.927 63.6635L163.805 63.186ZM164.127 81.494L163.384 80.825L163.384 80.825L164.127 81.494ZM159.297 81.494L158.554 82.163L158.563 82.173L158.572 82.1828L159.297 81.494ZM157.595 80.16L156.814 79.5353L156.811 79.5393L157.595 80.16ZM155.341 81.908L155.739 82.8256L155.752 82.8201L155.764 82.8142L155.341 81.908ZM175.887 81.448L175.439 82.3425L175.447 82.3462L175.887 81.448ZM172.713 78.366L171.818 78.8132L171.822 78.8213L171.826 78.8293L172.713 78.366ZM171.701 64.612H172.701V63.612H171.701V64.612ZM167.745 63.922L167.038 64.6291L167.049 64.6405L167.061 64.6515L167.745 63.922ZM167.745 60.104L168.427 60.8351L168.429 60.8335L167.745 60.104ZM171.701 59.414V60.414H172.701V59.414H171.701ZM172.621 53.296L173.309 54.021L173.319 54.0122L173.328 54.0031L172.621 53.296ZM177.773 53.296L177.048 53.9848L177.057 53.994L177.066 54.0031L177.773 53.296ZM178.647 59.414H177.647V60.414H178.647V59.414ZM184.995 60.104L184.288 60.8111L184.3 60.8233L184.312 60.8351L184.995 60.104ZM178.647 64.612V63.612H177.647V64.612H178.647ZM179.521 75.882L178.779 76.5529L178.788 76.5624L178.797 76.5717L179.521 75.882ZM183.707 76.71L183.932 77.6844L183.932 77.6844L183.707 76.71ZM184.811 76.526L184.739 75.5285L184.73 75.5292L184.72 75.5301L184.811 76.526ZM185.869 76.94L185.125 77.609L185.143 77.6285L185.162 77.6471L185.869 76.94ZM185.915 80.758L186.828 81.1641L186.828 81.1641L185.915 80.758ZM184.627 81.954L184.986 82.8874L184.998 82.8825L184.627 81.954ZM182.971 82.322L182.841 81.3304L182.816 81.3336L182.792 81.3381L182.971 82.322ZM190.327 81.494L189.602 82.1828L189.611 82.192L189.62 82.2011L190.327 81.494ZM190.327 50.076L191.034 50.7831L191.034 50.7831L190.327 50.076ZM195.479 50.076L194.754 50.7648L194.772 50.7833L194.79 50.801L195.479 50.076ZM198.883 60.196L199.383 61.0619L199.389 61.0584L198.883 60.196ZM208.129 60.012L207.611 60.8675L207.62 60.8726L207.628 60.8774L208.129 60.012ZM210.751 63.14L209.827 63.5218L209.83 63.529L210.751 63.14ZM210.705 81.494L209.998 80.7869L209.989 80.796L209.98 80.8053L210.705 81.494ZM205.553 81.494L204.828 82.1828L204.837 82.192L204.846 82.2011L205.553 81.494ZM203.805 65.394L203.018 66.0103L203.032 66.0293L203.048 66.0476L203.805 65.394ZM197.687 65.716L196.968 65.021L196.962 65.0273L196.956 65.0337L197.687 65.716ZM221.641 81.08L221.182 81.9686L221.19 81.973L221.199 81.9773L221.641 81.08ZM217.225 76.986L216.355 77.4805L216.36 77.4895L216.366 77.4983L217.225 76.986ZM217.179 64.612L218.051 65.1016L218.054 65.0951L217.179 64.612ZM221.273 60.472L221.762 61.344L221.767 61.3412L221.273 60.472ZM231.715 59.782L231.328 60.7044L231.338 60.7083L231.347 60.712L231.715 59.782ZM235.119 62.082L234.39 62.7667L234.395 62.7723L234.4 62.7778L235.119 62.082ZM237.281 65.716L236.334 66.0383L236.336 66.0445L237.281 65.716ZM237.465 71.788L238.065 72.588L238.085 72.5726L238.105 72.5562L237.465 71.788ZM231.715 66.13L230.795 66.524L230.801 66.5361L231.715 66.13ZM230.105 64.198L229.568 65.0417L229.576 65.047L229.585 65.0522L230.105 64.198ZM224.677 64.336L225.224 65.173L225.224 65.173L224.677 64.336ZM222.837 66.59L223.753 66.9908L223.753 66.9908L222.837 66.59ZM223.803 75.652L223.085 76.3492L223.095 76.3591L223.803 75.652ZM231.209 77.032L231.399 78.0138L231.399 78.0138L231.209 77.032ZM233.877 76.158L233.445 75.2559L233.443 75.257L233.877 76.158ZM235.763 75.836L235.546 76.8122L235.572 76.818L235.598 76.8224L235.763 75.836ZM237.557 77.952L236.558 78.0107L236.56 78.0399L236.563 78.0689L237.557 77.952ZM237.235 79.516L238.106 80.0063L238.112 79.9952L238.118 79.9839L237.235 79.516ZM235.855 80.758L235.391 79.8722L235.379 79.8785L235.367 79.8851L235.855 80.758ZM232.313 82.046L232.108 81.0672L232.094 81.07L232.081 81.0732L232.313 82.046ZM242.977 81.494L242.27 82.2011L242.27 82.2011L242.977 81.494ZM242.931 59.966L242.223 59.2589L242.223 59.2589L242.931 59.966ZM247.991 59.966L247.266 60.6548L247.274 60.664L247.283 60.6731L247.991 59.966ZM250.843 60.656L250.216 59.877L250.216 59.877L250.843 60.656ZM255.719 58.954L255.78 59.9521L255.789 59.9516L255.798 59.9508L255.719 58.954ZM257.467 59.552L256.711 60.2069L256.734 60.2339L256.759 60.2591L257.467 59.552ZM258.157 61.714L257.157 61.7443L257.158 61.7614L257.159 61.7784L258.157 61.714ZM257.559 63.968L256.79 63.3278L256.78 63.3408L256.769 63.3541L257.559 63.968ZM255.351 64.98L255.437 65.9762L255.452 65.9749L255.467 65.9732L255.351 64.98ZM254.293 65.072L254.206 64.0758L254.205 64.0758L254.293 65.072ZM250.383 66.59L249.675 65.8829L249.669 65.8893L249.663 65.8959L250.383 66.59ZM248.221 81.494L247.513 80.7869L247.504 80.796L247.496 80.8053L248.221 81.494ZM93.8597 60.5076L94.8026 60.1743L93.8646 57.5207L92.918 60.1713L93.8597 60.5076ZM104.285 72.097L103.338 72.4185L104.281 75.1969L105.231 72.4208L104.285 72.097ZM83.6088 71.7321L82.6609 72.0507L83.5828 74.7939L84.5512 72.0667L83.6088 71.7321ZM56.3224 77.773L55.3965 78.1508L56.3168 80.4066L57.2467 78.1547L56.3224 77.773ZM54.3333 81.6415L55.2469 82.0482L55.4249 81.6482L55.2518 81.2461L54.3333 81.6415ZM33.337 70.4034L32.6485 69.6782L31.8813 70.4067L32.6518 71.1317L33.337 70.4034ZM158.469 78.6261H159.469L157.535 78.2704L158.469 78.6261ZM158.331 68.568V69.568H159.331V68.568H158.331ZM158.331 72.156H159.331V71.156H158.331V72.156ZM124.777 72.202L123.787 72.3401L123.787 72.3403L124.777 72.202ZM124.764 68.614L123.773 68.4791L123.619 69.614H124.764V68.614ZM134.724 68.614V69.614H135.78L135.723 68.5593L134.724 68.614ZM124.768 72.133L125.759 71.9981L123.776 72.2644L124.768 72.133ZM222.29 68.614L221.299 68.4791L221.144 69.614H222.29V68.614ZM232.249 68.614V69.614H233.306L233.248 68.5593L232.249 68.614ZM222.293 72.133L223.284 71.9982L221.302 72.2647L222.293 72.133ZM248.865 63.3679H247.865L249.792 63.7412L248.865 63.3679ZM196.399 62.5076H195.399V65.7726L197.228 63.0676L196.399 62.5076ZM11.0399 81.414C9.74215 81.414 8.42487 81.2555 7.0865 80.9354L6.62136 82.8806C8.10433 83.2352 9.57771 83.414 11.0399 83.414V81.414ZM7.09138 80.9366C5.83303 80.629 4.65706 80.0979 3.55914 79.3378L2.42072 80.9822C3.7148 81.8781 5.11483 82.5123 6.61648 82.8794L7.09138 80.9366ZM3.56339 79.3408C3.37016 79.2055 3.29281 79.0923 3.25974 79.0179L1.43212 79.8301C1.64438 80.3077 1.99637 80.6852 2.41647 80.9792L3.56339 79.3408ZM3.27441 79.0526C3.20131 78.8699 3.19247 78.7446 3.20181 78.6604L1.21405 78.4396C1.16206 78.9075 1.24522 79.3648 1.41745 79.7954L3.27441 79.0526ZM3.18851 78.7461C3.21989 78.5892 3.27421 78.4899 3.33519 78.4188L1.81667 77.1172C1.50965 77.4754 1.31864 77.8975 1.22735 78.3539L3.18851 78.7461ZM3.28304 78.4751C3.35309 78.4051 3.39349 78.3971 3.42236 78.3939L3.2015 76.4061C2.67837 76.4642 2.2281 76.7016 1.86882 77.0609L3.28304 78.4751ZM3.50805 78.3806C3.53649 78.3749 3.64471 78.3624 3.87672 78.4784L4.77114 76.6896C4.26715 76.4376 3.70071 76.3024 3.11581 76.4194L3.50805 78.3806ZM3.79983 78.4357C5.0584 79.2102 6.29434 79.7749 7.50629 80.1115L8.04157 78.1845C7.04552 77.9078 5.98146 77.4298 4.84803 76.7323L3.79983 78.4357ZM7.53758 80.1197C8.74517 80.4134 9.94385 80.562 11.1319 80.562V78.562C10.112 78.562 9.07203 78.4346 8.01028 78.1763L7.53758 80.1197ZM11.1319 80.562C12.9753 80.562 14.5403 80.2272 15.6744 79.406L14.5014 77.7861C13.8569 78.2528 12.7845 78.562 11.1319 78.562V80.562ZM15.6744 79.406C16.8252 78.5727 17.4219 77.3966 17.4219 75.974H15.4219C15.4219 76.7594 15.1294 77.3314 14.5014 77.7861L15.6744 79.406ZM17.4219 75.974C17.4219 74.8625 17.0307 73.8913 16.1921 73.1851L14.9038 74.7149C15.2305 74.99 15.4219 75.3682 15.4219 75.974H17.4219ZM16.2147 73.2048C15.4459 72.5169 14.3311 72.069 13.0023 71.7773L12.5735 73.7308C13.7594 73.9911 14.4846 74.3404 14.8811 74.6953L16.2147 73.2048ZM13.0026 71.7773L8.81659 70.8573L8.38727 72.8107L12.5733 73.7307L13.0026 71.7773ZM8.80402 70.8546C6.98537 70.4794 5.75784 69.8544 4.99617 69.0682L3.55969 70.4598C4.69936 71.6362 6.35449 72.3913 8.39984 72.8134L8.80402 70.8546ZM5.00747 69.0801C4.28929 68.314 3.89793 67.3002 3.89793 65.946H1.89793C1.89793 67.7198 2.42657 69.2513 3.54839 70.4479L5.00747 69.0801ZM3.89793 65.946C3.89793 64.7446 4.20171 63.7755 4.76795 62.9876L3.14392 61.8204C2.29949 62.9952 1.89793 64.3874 1.89793 65.946H3.89793ZM4.76467 62.9922C5.3784 62.1483 6.24966 61.4721 7.42407 60.9804L6.65179 59.1356C5.18886 59.748 4.00546 60.6357 3.14719 61.8158L4.76467 62.9922ZM7.42407 60.9804C8.59645 60.4897 9.99377 60.23 11.6379 60.23V58.23C9.78609 58.23 8.11674 58.5223 6.65179 59.1356L7.42407 60.9804ZM11.6379 60.23C12.8954 60.23 14.0683 60.4013 15.1618 60.7378L15.75 58.8262C14.4516 58.4267 13.0792 58.23 11.6379 58.23V60.23ZM15.1908 60.7462C16.2929 61.0493 17.2773 61.5424 18.1523 62.226L19.3836 60.65C18.2959 59.8002 17.0723 59.1894 15.7211 58.8178L15.1908 60.7462ZM18.1945 62.2572C18.3494 62.3657 18.3913 62.4514 18.4081 62.5074L20.3238 61.9327C20.1566 61.3753 19.7998 60.9397 19.3414 60.6188L18.1945 62.2572ZM18.4521 62.6261C18.4715 62.6698 18.4819 62.7141 18.4541 62.8067L20.3698 63.3814C20.526 62.8606 20.5057 62.3222 20.2797 61.8139L18.4521 62.6261ZM18.4357 62.8771C18.4187 62.9536 18.3814 63.0324 18.2908 63.1229L19.705 64.5371C20.0438 64.1983 20.2825 63.7864 20.3881 63.3109L18.4357 62.8771ZM18.3471 63.0708C18.3019 63.1096 18.2388 63.1447 18.1164 63.157L18.3154 65.147C18.8064 65.0979 19.2647 64.9184 19.6487 64.5893L18.3471 63.0708ZM18.1164 63.157C18.0916 63.1595 17.9917 63.1627 17.7868 63.0323L16.7131 64.7197C17.1828 65.0186 17.7269 65.2059 18.3154 65.147L18.1164 63.157ZM17.8046 63.044C16.8096 62.3806 15.7821 61.8892 14.7227 61.5817L14.1651 63.5024C15.0071 63.7468 15.8503 64.1448 16.6952 64.7081L17.8046 63.044ZM14.7509 61.5903C13.7096 61.2544 12.6707 61.082 11.6379 61.082V63.082C12.4452 63.082 13.277 63.2163 14.1369 63.4937L14.7509 61.5903ZM11.6379 61.082C9.81307 61.082 8.25807 61.4366 7.12354 62.2973L8.33232 63.8907C8.97646 63.402 10.0281 63.082 11.6379 63.082V61.082ZM7.12354 62.2973C5.98825 63.1586 5.39393 64.3411 5.39393 65.762H7.39393C7.39393 64.9749 7.68894 64.3788 8.33232 63.8907L7.12354 62.2973ZM5.39393 65.762C5.39393 66.8568 5.75565 67.8259 6.51482 68.5851L7.92904 67.1709C7.58421 66.8261 7.39393 66.3846 7.39393 65.762H5.39393ZM6.51482 68.5851C7.25841 69.3287 8.32953 69.7868 9.59192 70.0526L10.0039 68.0955C8.93566 67.8706 8.28946 67.5313 7.92904 67.1709L6.51482 68.5851ZM9.59355 70.0529L13.7795 70.9269L14.1883 68.9691L10.0023 68.0951L9.59355 70.0529ZM13.7734 70.9256C15.668 71.3337 16.9538 71.9648 17.7501 72.7362L19.1417 71.2998C17.9754 70.1699 16.2866 69.421 14.1945 68.9704L13.7734 70.9256ZM17.7733 72.7579C18.5416 73.4565 18.9639 74.4258 18.9639 75.79H20.9639C20.9639 73.9649 20.3742 72.4195 19.1186 71.2781L17.7733 72.7579ZM18.9639 75.79C18.9639 77.4972 18.3016 78.8077 16.9333 79.8146L18.1186 81.4254C20.001 80.0403 20.9639 78.1308 20.9639 75.79H18.9639ZM16.9333 79.8146C15.5293 80.8477 13.5965 81.414 11.0399 81.414V83.414C13.8806 83.414 16.2719 82.7844 18.1186 81.4254L16.9333 79.8146ZM27.4824 81.322C27.0491 81.322 26.9004 81.2072 26.8424 81.1433L25.3625 82.4887C25.9177 83.0995 26.6891 83.322 27.4824 83.322V81.322ZM26.8424 81.1433C26.7537 81.0458 26.6424 80.8418 26.6424 80.39H24.6424C24.6424 81.1649 24.8378 81.9116 25.3625 82.4887L26.8424 81.1433ZM26.6424 80.39V51.134H24.6424V80.39H26.6424ZM26.6424 51.134C26.6424 50.6748 26.7565 50.5141 26.8095 50.4611L25.3953 49.0469C24.835 49.6072 24.6424 50.3665 24.6424 51.134H26.6424ZM26.8424 50.4267C26.9004 50.3628 27.0491 50.248 27.4824 50.248V48.248C26.6891 48.248 25.9177 48.4706 25.3625 49.0813L26.8424 50.4267ZM27.4824 50.248C27.8624 50.248 28.0455 50.3513 28.1553 50.4611L29.5695 49.0469C29.0047 48.482 28.2678 48.248 27.4824 48.248V50.248ZM28.1897 50.4939C28.2536 50.552 28.3684 50.7007 28.3684 51.134H30.3684C30.3684 50.3407 30.1459 49.5693 29.5351 49.0141L28.1897 50.4939ZM28.3684 51.134V69.58H30.3684V51.134H28.3684ZM29.3684 70.58H29.4604V68.58H29.3684V70.58ZM30.1515 70.3028L39.5815 61.2868L38.1994 59.8412L28.7694 68.8572L30.1515 70.3028ZM39.5709 61.2968C39.9831 60.914 40.3136 60.6412 40.5679 60.4632L39.421 58.8248C39.0619 59.0761 38.6564 59.4166 38.21 59.8312L39.5709 61.2968ZM40.5313 60.4877C40.658 60.407 40.8969 60.322 41.3284 60.322V58.322C40.656 58.322 40.0055 58.4517 39.4575 58.8003L40.5313 60.4877ZM41.3284 60.322C41.6257 60.322 41.7282 60.4 41.7713 60.4431L43.1855 59.0289C42.6766 58.52 42.0124 58.322 41.3284 58.322V60.322ZM41.8141 60.4834C41.829 60.4967 41.8359 60.5056 41.8385 60.5093C41.8409 60.5128 41.842 60.515 41.8429 60.5175C41.844 60.5202 41.8552 60.5496 41.8494 60.6253L43.8435 60.7787C43.8958 60.0983 43.6738 59.4607 43.1428 58.9886L41.8141 60.4834ZM41.8464 60.702C41.8464 60.7321 41.8276 60.906 41.5352 61.2472L43.0537 62.5488C43.4972 62.0313 43.8464 61.4079 43.8464 60.702H41.8464ZM42.4613 80.3611C42.7994 80.6992 42.8124 80.8732 42.8124 80.896H44.8124C44.8124 80.1214 44.3961 79.4674 43.8755 78.9469L42.4613 80.3611ZM42.8124 80.896C42.8124 81.0001 42.7878 81.0708 42.6835 81.1647L44.0214 82.6513C44.5304 82.1932 44.8124 81.5892 44.8124 80.896H42.8124ZM42.6453 81.2009C42.59 81.2562 42.4942 81.322 42.2484 81.322V83.322C42.9227 83.322 43.5628 83.1119 44.0595 82.6151L42.6453 81.2009ZM42.2484 81.322C41.8169 81.322 41.578 81.237 41.4513 81.1563L40.3775 82.8437C40.9255 83.1923 41.576 83.322 42.2484 83.322V81.322ZM41.5026 81.1913C41.2127 80.9804 40.8327 80.659 40.3564 80.2125L38.9885 81.6715C39.4935 82.145 39.9415 82.5289 40.3262 82.8087L41.5026 81.1913ZM40.3508 80.2073L30.1388 70.7773L28.782 72.2467L38.994 81.6767L40.3508 80.2073ZM29.4604 70.512H29.3684V72.512H29.4604V70.512ZM28.3684 71.512V80.39H30.3684V71.512H28.3684ZM28.3684 80.39C28.3684 80.8858 28.2473 81.0729 28.1813 81.1405C28.1197 81.2036 27.9507 81.322 27.4824 81.322V83.322C28.2714 83.322 29.0454 83.1184 29.6125 82.5375C30.1752 81.9611 30.3684 81.1822 30.3684 80.39H28.3684ZM52.8917 89.602C52.6141 89.602 52.5031 89.532 52.452 89.4866L51.1233 90.9814C51.6242 91.4267 52.2493 91.602 52.8917 91.602V89.602ZM52.452 89.4866C52.3827 89.425 52.3056 89.3187 52.2716 89.0806L50.2917 89.3634C50.3804 89.984 50.6406 90.5523 51.1233 90.9814L52.452 89.4866ZM52.2787 89.1453C52.2624 88.9326 52.2997 88.6799 52.4308 88.3739L50.5925 87.5861C50.3557 88.1387 50.2396 88.7141 50.2846 89.2987L52.2787 89.1453ZM46.7821 61.5726C46.6494 61.2409 46.6295 60.9938 46.658 60.8081L44.6813 60.5039C44.5872 61.1156 44.6899 61.7271 44.9252 62.3154L46.7821 61.5726ZM46.658 60.8081C46.6824 60.6498 46.7412 60.555 46.8464 60.4709L45.597 58.9091C45.0888 59.3157 44.7796 59.8649 44.6813 60.5039L46.658 60.8081ZM46.8464 60.4709C46.9161 60.4151 47.0943 60.322 47.5097 60.322V58.322C46.821 58.322 46.1406 58.4742 45.597 58.9091L46.8464 60.4709ZM47.5097 60.322C47.8658 60.322 48.0039 60.4008 48.0457 60.4334L49.2736 58.8547C48.7635 58.4579 48.1349 58.322 47.5097 58.322V60.322ZM48.0457 60.4334C48.1116 60.4846 48.2743 60.6696 48.4637 61.1565L50.3277 60.4316C50.0876 59.8144 49.7598 59.2328 49.2736 58.8547L48.0457 60.4334ZM64.2475 61.2001C64.4682 60.7036 64.6464 60.4981 64.7296 60.4334L63.5017 58.8547C63.033 59.2193 62.6898 59.7804 62.4199 60.3879L64.2475 61.2001ZM64.7296 60.4334C64.7624 60.4079 64.9082 60.322 65.3117 60.322V58.322C64.6724 58.322 64.0209 58.4508 63.5017 58.8547L64.7296 60.4334ZM65.3117 60.322C65.4766 60.322 65.5803 60.343 65.6394 60.3627C65.6937 60.3808 65.7081 60.3966 65.7086 60.3971L67.1228 58.9829C66.6238 58.4839 65.9565 58.322 65.3117 58.322V60.322ZM65.7513 60.4374C65.8168 60.4957 65.866 60.5688 65.8786 60.7327L67.8727 60.5793C67.824 59.9459 67.5665 59.375 67.08 58.9426L65.7513 60.4374ZM65.8893 60.8204C65.9122 60.9579 65.9009 61.1824 65.7632 61.5266L67.6201 62.2694C67.8504 61.6937 67.9618 61.0901 67.8621 60.4916L65.8893 60.8204ZM65.7738 61.5011L53.9978 88.7331L55.8335 89.5269L67.6095 62.2949L65.7738 61.5011ZM54.0019 88.7239C53.7895 89.2017 53.6069 89.3959 53.5142 89.4608L54.6611 91.0992C55.1818 90.7348 55.5512 90.1623 55.8295 89.5361L54.0019 88.7239ZM53.4737 89.4907C53.4409 89.5162 53.2951 89.602 52.8917 89.602V91.602C53.5309 91.602 54.1824 91.4732 54.7016 91.0694L53.4737 89.4907ZM83.3286 81.414C82.5026 81.414 81.9336 81.2218 81.5366 80.924L80.3366 82.524C81.1662 83.1462 82.1919 83.414 83.3286 83.414V81.414ZM81.5613 80.9431C81.1281 80.5966 80.7261 80.0322 80.4009 79.1649L78.5282 79.8671C78.939 80.9625 79.5183 81.87 80.3119 82.5049L81.5613 80.9431ZM80.4068 79.1809L71.1148 53.0529L69.2304 53.7231L78.5224 79.8511L80.4068 79.1809ZM71.1187 53.0643C70.7943 52.1159 70.8963 51.4603 71.2346 50.9527L69.5705 49.8433C68.8049 50.9918 68.7535 52.3294 69.2264 53.7117L71.1187 53.0643ZM71.2204 50.9735C71.5483 50.5075 72.1692 50.156 73.3926 50.156V48.156C71.7946 48.156 70.4222 48.6325 69.5848 49.8225L71.2204 50.9735ZM73.3926 50.156C74.2298 50.156 74.7093 50.3526 74.9849 50.5958L76.3082 49.0962C75.5412 48.4194 74.518 48.156 73.3926 48.156V50.156ZM75.0064 50.6142C75.3689 50.9163 75.7321 51.4522 76.0349 52.3331L77.9263 51.6829C77.5544 50.6012 77.0282 49.6957 76.2868 49.0778L75.0064 50.6142ZM91.5329 52.4051C91.8702 51.5057 92.2404 50.9522 92.5922 50.6418L91.269 49.1422C90.5781 49.7518 90.059 50.6396 89.6602 51.7029L91.5329 52.4051ZM92.5949 50.6394C92.9281 50.3433 93.3956 50.156 94.0926 50.156V48.156C93.0109 48.156 92.037 48.4594 91.2662 49.1446L92.5949 50.6394ZM94.0926 50.156C94.7504 50.156 95.1772 50.3378 95.4772 50.6202L96.8479 49.1638C96.1053 48.4648 95.1521 48.156 94.0926 48.156V50.156ZM95.501 50.6418C95.8465 50.9467 96.2174 51.5084 96.5568 52.4418L98.4364 51.7583C98.0398 50.6676 97.5214 49.7573 96.8242 49.1422L95.501 50.6418ZM112.11 52.315C112.381 51.477 112.726 50.9605 113.087 50.6602L111.806 49.1238C111.063 49.7435 110.55 50.6377 110.207 51.701L112.11 52.315ZM113.111 50.6394C113.432 50.3538 113.923 50.156 114.701 50.156V48.156C113.577 48.156 112.565 48.4489 111.782 49.1446L113.111 50.6394ZM114.701 50.156C115.64 50.156 116.163 50.4617 116.491 50.9527L118.155 49.8433C117.378 48.6783 116.153 48.156 114.701 48.156V50.156ZM116.491 50.9527C116.821 51.4489 116.918 52.0939 116.568 53.0423L118.445 53.7337C118.954 52.3515 118.928 51.0031 118.155 49.8433L116.491 50.9527ZM116.565 53.0505L107.181 79.2245L109.064 79.8995L118.448 53.7255L116.565 53.0505ZM107.18 79.2276C106.884 80.0635 106.508 80.6142 106.098 80.9591L107.387 82.4889C108.142 81.8525 108.687 80.9619 109.065 79.8964L107.18 79.2276ZM106.123 80.9391C105.771 81.2168 105.219 81.414 104.351 81.414V83.414C105.506 83.414 106.549 83.1512 107.362 82.5089L106.123 80.9391ZM104.351 81.414C103.522 81.414 102.981 81.2207 102.624 80.9391L101.385 82.5089C102.194 83.1474 103.217 83.414 104.351 83.414V81.414ZM102.649 80.9591C102.238 80.6128 101.844 80.0431 101.515 79.1649L99.6422 79.8671C100.049 80.9516 100.606 81.8538 101.36 82.4889L102.649 80.9591ZM86.122 79.201C85.7949 80.0459 85.4024 80.6071 84.9844 80.9591L86.2727 82.4889C87.0201 81.8595 87.5782 80.9794 87.9871 79.923L86.122 79.201ZM84.9884 80.9558C84.6723 81.2192 84.1613 81.414 83.3286 81.414V83.414C84.4585 83.414 85.4809 83.1488 86.2688 82.4922L84.9884 80.9558ZM131.015 81.506C128.464 81.506 126.322 81.0516 124.557 80.1828L123.674 81.9773C125.772 83.0097 128.23 83.506 131.015 83.506V81.506ZM124.574 80.1914C122.829 79.2911 121.5 78.053 120.558 76.4737L118.84 77.4983C119.984 79.415 121.598 80.9063 123.656 81.9686L124.574 80.1914ZM120.568 76.4915C119.656 74.8873 119.181 72.9781 119.181 70.73H117.181C117.181 73.2659 117.719 75.5274 118.83 77.4805L120.568 76.4915ZM119.181 70.73C119.181 68.5427 119.64 66.6773 120.525 65.1015L118.781 64.1225C117.703 66.0427 117.181 68.256 117.181 70.73H119.181ZM120.529 65.0951C121.421 63.4772 122.653 62.2329 124.237 61.344L123.258 59.6C121.345 60.6738 119.848 62.1895 118.778 64.1289L120.529 65.0951ZM124.242 61.3412C125.856 60.4228 127.691 59.954 129.773 59.954V57.954C127.378 57.954 125.196 58.4972 123.253 59.6028L124.242 61.3412ZM129.773 59.954C131.284 59.954 132.622 60.2102 133.803 60.7044L134.575 58.8596C133.119 58.2498 131.513 57.954 129.773 57.954V59.954ZM133.821 60.712C135.006 61.1803 136.017 61.8644 136.864 62.7667L138.322 61.3973C137.268 60.2756 136.009 59.4264 134.557 58.852L133.821 60.712ZM136.875 62.7778C137.712 63.6414 138.36 64.7207 138.808 66.0383L140.702 65.3937C140.169 63.8287 139.376 62.4852 138.311 61.3862L136.875 62.7778ZM138.811 66.0445C139.259 67.3333 139.491 68.7992 139.491 70.454H141.491C141.491 68.6128 141.233 66.9201 140.7 65.3875L138.811 66.0445ZM139.491 70.454C139.491 70.8104 139.39 70.9441 139.299 71.0198L140.579 72.5562C141.224 72.0186 141.491 71.2629 141.491 70.454H139.491ZM139.339 70.988C139.215 71.0814 138.927 71.202 138.329 71.202V73.202C139.142 73.202 139.928 73.0467 140.539 72.588L139.339 70.988ZM135.108 65.7361C134.67 64.7123 134.005 63.8952 133.099 63.3438L132.059 65.0522C132.564 65.3595 132.973 65.8303 133.27 66.5239L135.108 65.7361ZM133.116 63.3543C132.243 62.799 131.201 62.554 130.049 62.554V64.554C130.921 64.554 131.566 64.7384 132.042 65.0417L133.116 63.3543ZM130.049 62.554C128.758 62.554 127.593 62.8524 126.604 63.499L127.698 65.173C128.304 64.7769 129.071 64.554 130.049 64.554V62.554ZM126.604 63.499C125.624 64.1397 124.892 65.0526 124.395 66.1892L126.227 66.9908C126.589 66.1648 127.084 65.575 127.698 65.173L126.604 63.499ZM125.57 76.3591C126.923 77.712 128.843 78.308 131.153 78.308V76.308C129.17 76.308 127.839 75.8 126.984 74.9449L125.57 76.3591ZM131.153 78.308C131.969 78.308 132.878 78.2064 133.873 78.0138L133.493 76.0502C132.587 76.2257 131.809 76.308 131.153 76.308V78.308ZM133.873 78.0138C134.904 77.8143 135.875 77.4969 136.785 77.059L135.917 75.257C135.171 75.6164 134.364 75.8817 133.493 76.0502L133.873 78.0138ZM136.783 77.0601C137.362 76.7829 137.757 76.7536 138.02 76.8122L138.454 74.8598C137.614 74.6731 136.751 74.8584 135.92 75.2559L136.783 77.0601ZM138.073 76.8224C138.406 76.8779 138.598 77.0067 138.732 77.1817L140.318 75.9623C139.839 75.3399 139.173 74.9781 138.402 74.8496L138.073 76.8224ZM138.732 77.1817C138.912 77.4152 139.013 77.6814 139.033 78.0107L141.029 77.8933C140.987 77.18 140.752 76.5262 140.318 75.9623L138.732 77.1817ZM139.038 78.0689C139.073 78.3643 139.019 78.683 138.825 79.0481L140.593 79.9839C140.952 79.3063 141.112 78.5824 141.024 77.8352L139.038 78.0689ZM138.838 79.0257C138.68 79.3052 138.387 79.5987 137.865 79.8722L138.793 81.6438C139.559 81.2426 140.186 80.7081 140.581 80.0063L138.838 79.0257ZM137.841 79.8851C136.898 80.4125 135.814 80.8094 134.582 81.0672L134.992 83.0248C136.397 82.7307 137.675 82.2689 138.817 81.631L137.841 79.8851ZM134.556 81.0732C133.337 81.3632 132.158 81.506 131.015 81.506V83.506C132.326 83.506 133.661 83.3421 135.019 83.0188L134.556 81.0732ZM152.167 81.506C150.644 81.506 149.309 81.2106 148.144 80.6414L147.266 82.4386C148.738 83.1574 150.379 83.506 152.167 83.506V81.506ZM148.144 80.6414C146.967 80.0667 146.083 79.3046 145.455 78.3633L143.791 79.4727C144.636 80.7394 145.806 81.7253 147.266 82.4386L148.144 80.6414ZM145.455 78.3633C144.833 77.4304 144.519 76.3829 144.519 75.192H142.519C142.519 76.7611 142.941 78.1976 143.791 79.4727L145.455 78.3633ZM144.519 75.192C144.519 73.7091 144.901 72.6705 145.549 71.9523L144.065 70.6117C142.996 71.7949 142.519 73.3629 142.519 75.192H144.519ZM145.56 71.9405C146.218 71.1884 147.373 70.5674 149.195 70.1914L148.791 68.2326C146.749 68.6539 145.114 69.413 144.055 70.6235L145.56 71.9405ZM149.21 70.1882C151.041 69.7813 153.52 69.568 156.675 69.568V67.568C153.451 67.568 150.809 67.7841 148.776 68.2358L149.21 70.1882ZM156.721 71.156C155.126 71.156 153.785 71.2492 152.719 71.4491L153.088 73.4149C153.984 73.2468 155.189 73.156 156.721 73.156V71.156ZM152.744 71.4448C151.712 71.6113 150.793 71.9328 150.153 72.5272L151.514 73.9928C151.732 73.7898 152.193 73.5594 153.062 73.4192L152.744 71.4448ZM150.126 72.5529C149.495 73.1836 149.235 74.0158 149.235 74.916H151.235C151.235 74.4056 151.374 74.1338 151.54 73.9671L150.126 72.5529ZM149.235 74.916C149.235 76.0278 149.624 77.0029 150.421 77.758L151.797 76.3061C151.429 75.9571 151.235 75.5215 151.235 74.916H149.235ZM150.44 77.7753C151.296 78.5458 152.443 78.86 153.731 78.86V76.86C152.75 76.86 152.149 76.6222 151.778 76.2887L150.44 77.7753ZM153.731 78.86C154.775 78.86 155.737 78.6244 156.586 78.1229L155.568 76.4011C155.068 76.6969 154.466 76.86 153.731 76.86V78.86ZM156.597 78.1162C157.445 77.5999 158.119 76.909 158.604 76.0521L156.863 75.0679C156.55 75.6217 156.12 76.0655 155.557 76.4078L156.597 78.1162ZM158.613 76.0363C159.098 75.1399 159.331 74.1455 159.331 73.076H157.331C157.331 73.8465 157.166 74.5081 156.854 75.0837L158.613 76.0363ZM159.331 67.786C159.331 66.3277 159.006 65.0241 158.08 64.1907L156.742 65.6773C157.043 65.948 157.331 66.5456 157.331 67.786H159.331ZM158.1 64.209C157.204 63.358 155.837 63.06 154.283 63.06V65.06C155.674 65.06 156.392 65.3446 156.722 65.659L158.1 64.209ZM154.283 63.06C153.37 63.06 152.393 63.1782 151.356 63.4051L151.783 65.3589C152.708 65.1565 153.54 65.06 154.283 65.06V63.06ZM151.379 63.4002C150.353 63.5988 149.235 63.9414 148.028 64.4179L148.762 66.2782C149.886 65.8346 150.884 65.5332 151.759 65.3638L151.379 63.4002ZM147.981 64.4376C147.446 64.6812 147.102 64.683 146.883 64.6186L146.319 66.5374C147.143 66.7796 147.996 66.6281 148.809 66.2584L147.981 64.4376ZM146.934 64.635C146.604 64.5184 146.392 64.3439 146.246 64.1173L144.564 65.1988C144.97 65.8308 145.556 66.2696 146.268 66.521L146.934 64.635ZM146.263 64.1435C146.077 63.8342 145.991 63.5207 145.991 63.186H143.991C143.991 63.894 144.181 64.5618 144.548 65.1725L146.263 64.1435ZM145.991 63.186C145.991 62.8307 146.087 62.4918 146.299 62.152L144.603 61.092C144.202 61.7336 143.991 62.4373 143.991 63.186H145.991ZM146.313 62.129C146.473 61.8569 146.762 61.6028 147.298 61.4165L146.641 59.5275C145.766 59.8318 145.043 60.3444 144.589 61.115L146.313 62.129ZM147.344 61.3991C148.733 60.8377 150.012 60.462 151.186 60.2617L150.849 58.2903C149.507 58.5193 148.088 58.941 146.594 59.5449L147.344 61.3991ZM151.182 60.2624C152.426 60.0549 153.551 59.954 154.559 59.954V57.954C153.421 57.954 152.184 58.0678 150.853 58.2896L151.182 60.2624ZM154.559 59.954C156.831 59.954 158.604 60.2949 159.93 60.9172L160.78 59.1068C159.101 58.3184 157.01 57.954 154.559 57.954V59.954ZM159.952 60.9273C161.286 61.5141 162.264 62.4181 162.922 63.6556L164.688 62.7164C163.813 61.0713 162.491 59.8592 160.758 59.0967L159.952 60.9273ZM162.927 63.6635C163.588 64.8812 163.955 66.5259 163.955 68.66H165.955C165.955 66.3168 165.555 64.3121 164.684 62.7085L162.927 63.6635ZM163.955 68.66V78.872H165.955V68.66H163.955ZM163.955 78.872C163.955 79.8528 163.717 80.4545 163.384 80.825L164.871 82.163C165.641 81.3069 165.955 80.1605 165.955 78.872H163.955ZM163.384 80.825C163.069 81.1747 162.574 81.414 161.735 81.414V83.414C162.981 83.414 164.081 83.0399 164.871 82.163L163.384 80.825ZM161.735 81.414C160.898 81.414 160.374 81.1753 160.022 80.8053L158.572 82.1828C159.386 83.0394 160.487 83.414 161.735 83.414V81.414ZM160.041 80.825C159.707 80.4545 159.469 79.8528 159.469 78.872H157.469C157.469 80.1605 157.783 81.3069 158.554 82.163L160.041 80.825ZM156.811 79.5393C156.333 80.1436 155.709 80.6328 154.918 81.0018L155.764 82.8142C156.813 82.3246 157.692 81.6484 158.379 80.7807L156.811 79.5393ZM154.944 80.9905C154.171 81.3253 153.252 81.506 152.167 81.506V83.506C153.474 83.506 154.672 83.2881 155.739 82.8256L154.944 80.9905ZM181.223 81.506C179.213 81.506 177.594 81.1703 176.326 80.5498L175.447 82.3462C177.062 83.1363 179.001 83.506 181.223 83.506V81.506ZM176.334 80.5536C175.104 79.9387 174.203 79.0588 173.599 77.9028L171.826 78.8293C172.633 80.3719 173.848 81.5467 175.439 82.3424L176.334 80.5536ZM173.607 77.9188C173.022 76.7492 172.701 75.2128 172.701 73.26H170.701C170.701 75.4166 171.054 77.2841 171.818 78.8132L173.607 77.9188ZM172.701 73.26V64.612H170.701V73.26H172.701ZM171.701 63.612H169.769V65.612H171.701V63.612ZM169.769 63.612C169.091 63.612 168.687 63.4345 168.429 63.1925L167.061 64.6515C167.784 65.3295 168.729 65.612 169.769 65.612V63.612ZM168.452 63.2149C168.22 62.9831 168.055 62.6318 168.055 62.036H166.055C166.055 63.0349 166.349 63.9409 167.038 64.6291L168.452 63.2149ZM168.055 62.036C168.055 61.3498 168.235 61.014 168.427 60.8351L167.062 59.373C166.334 60.0526 166.055 61.0049 166.055 62.036H168.055ZM168.429 60.8335C168.687 60.5915 169.091 60.414 169.769 60.414V58.414C168.729 58.414 167.784 58.6965 167.061 59.3745L168.429 60.8335ZM169.769 60.414H171.701V58.414H169.769V60.414ZM172.701 59.414V55.918H170.701V59.414H172.701ZM172.701 55.918C172.701 54.9203 172.961 54.3523 173.309 54.021L171.932 52.571C171.054 53.405 170.701 54.5851 170.701 55.918H172.701ZM173.328 54.0031C173.706 53.6249 174.282 53.376 175.197 53.376V51.376C173.903 51.376 172.762 51.7404 171.914 52.5889L173.328 54.0031ZM175.197 53.376C176.154 53.376 176.712 53.6311 177.048 53.9848L178.498 52.6073C177.668 51.7343 176.508 51.376 175.197 51.376V53.376ZM177.066 54.0031C177.395 54.3321 177.647 54.9068 177.647 55.918H179.647C179.647 54.5985 179.316 53.4252 178.48 52.5889L177.066 54.0031ZM177.647 55.918V59.414H179.647V55.918H177.647ZM178.647 60.414H183.017V58.414H178.647V60.414ZM183.017 60.414C183.698 60.414 184.069 60.5928 184.288 60.8111L185.702 59.3969C185 58.6952 184.053 58.414 183.017 58.414V60.414ZM184.312 60.8351C184.504 61.0141 184.685 61.3498 184.685 62.036H186.685C186.685 61.0048 186.405 60.0526 185.677 59.373L184.312 60.8351ZM184.685 62.036C184.685 62.6317 184.519 62.9831 184.288 63.2149L185.702 64.6291C186.39 63.9409 186.685 63.0349 186.685 62.036H184.685ZM184.288 63.2149C184.069 63.4332 183.698 63.612 183.017 63.612V65.612C184.053 65.612 185 65.3308 185.702 64.6291L184.288 63.2149ZM183.017 63.612H178.647V65.612H183.017V63.612ZM177.647 64.612V72.984H179.647V64.612H177.647ZM177.647 72.984C177.647 74.4028 177.965 75.6536 178.779 76.5529L180.262 75.2111C179.911 74.8225 179.647 74.1412 179.647 72.984H177.647ZM178.797 76.5717C179.674 77.4926 180.959 77.848 182.419 77.848V75.848C181.242 75.848 180.594 75.5594 180.245 75.1924L178.797 76.5717ZM182.419 77.848C182.945 77.848 183.451 77.7954 183.932 77.6844L183.482 75.7356C183.165 75.8086 182.812 75.848 182.419 75.848V77.848ZM183.932 77.6844C184.295 77.6006 184.617 77.5477 184.901 77.5219L184.72 75.5301C184.329 75.5656 183.916 75.6354 183.482 75.7356L183.932 77.6844ZM184.882 77.5235C185.019 77.5137 185.066 77.5429 185.125 77.609L186.612 76.271C186.119 75.7238 185.461 75.477 184.739 75.5285L184.882 77.5235ZM185.162 77.6471C185.103 77.5884 185.151 77.5963 185.202 77.8329C185.25 78.0504 185.283 78.3741 185.283 78.826H187.283C187.283 78.2966 187.246 77.8153 187.156 77.4041C187.07 77.012 186.911 76.5676 186.576 76.2329L185.162 77.6471ZM185.283 78.826C185.283 79.452 185.178 79.9525 185.001 80.3519L186.828 81.1641C187.142 80.4595 187.283 79.672 187.283 78.826H185.283ZM185.001 80.3519C184.872 80.6424 184.651 80.8671 184.255 81.0255L184.998 82.8825C185.829 82.5503 186.467 81.9776 186.828 81.1641L185.001 80.3519ZM184.268 81.0207C183.976 81.133 183.513 81.2428 182.841 81.3304L183.1 83.3136C183.839 83.2172 184.48 83.0817 184.986 82.8874L184.268 81.0207ZM182.792 81.3381C182.155 81.4539 181.635 81.506 181.223 81.506V83.506C181.792 83.506 182.437 83.4354 183.15 83.3059L182.792 81.3381ZM192.949 81.414C191.995 81.414 191.407 81.1601 191.034 80.7869L189.62 82.2011C190.473 83.0546 191.634 83.414 192.949 83.414V81.414ZM191.052 80.8053C190.699 80.4338 190.453 79.8398 190.453 78.872H188.453C188.453 80.1735 188.79 81.3275 189.602 82.1828L191.052 80.8053ZM190.453 78.872V52.698H188.453V78.872H190.453ZM190.453 52.698C190.453 51.6868 190.705 51.1121 191.034 50.7831L189.62 49.3689C188.784 50.2052 188.453 51.3785 188.453 52.698H190.453ZM191.034 50.7831C191.407 50.4099 191.995 50.156 192.949 50.156V48.156C191.634 48.156 190.473 48.5154 189.62 49.3689L191.034 50.7831ZM192.949 50.156C193.867 50.156 194.413 50.4059 194.754 50.7648L196.204 49.3873C195.38 48.5195 194.239 48.156 192.949 48.156V50.156ZM194.79 50.801C195.139 51.1323 195.399 51.7003 195.399 52.698H197.399C197.399 51.3651 197.046 50.185 196.168 49.351L194.79 50.801ZM199.389 61.0584C200.633 60.3283 202.05 59.954 203.667 59.954V57.954C201.726 57.954 199.954 58.4077 198.377 59.3336L199.389 61.0584ZM203.667 59.954C205.352 59.954 206.645 60.2829 207.611 60.8675L208.647 59.1565C207.282 58.3305 205.601 57.954 203.667 57.954V59.954ZM207.628 60.8774C208.578 61.4273 209.316 62.286 209.827 63.5218L211.675 62.7582C211.02 61.1727 210.011 59.946 208.63 59.1466L207.628 60.8774ZM209.83 63.529C210.343 64.7448 210.625 66.3636 210.625 68.43H212.625C212.625 66.2031 212.324 64.2952 211.672 62.751L209.83 63.529ZM210.625 68.43V78.872H212.625V68.43H210.625ZM210.625 78.872C210.625 79.8265 210.371 80.4137 209.998 80.7869L211.412 82.2011C212.266 81.3477 212.625 80.1869 212.625 78.872H210.625ZM209.98 80.8053C209.644 81.1589 209.087 81.414 208.129 81.414V83.414C209.441 83.414 210.601 83.0557 211.43 82.1828L209.98 80.8053ZM208.129 81.414C207.214 81.414 206.638 81.1651 206.26 80.7869L204.846 82.2011C205.694 83.0496 206.836 83.414 208.129 83.414V81.414ZM206.278 80.8053C205.925 80.4338 205.679 79.8398 205.679 78.872H203.679C203.679 80.1735 204.016 81.3275 204.828 82.1828L206.278 80.8053ZM205.679 78.872V68.752H203.679V78.872H205.679ZM205.679 68.752C205.679 67.1119 205.383 65.6909 204.562 64.7404L203.048 66.0476C203.393 66.4464 203.679 67.2641 203.679 68.752H205.679ZM204.593 64.7777C203.797 63.7607 202.601 63.336 201.229 63.336V65.336C202.187 65.336 202.709 65.6166 203.018 66.0103L204.593 64.7777ZM201.229 63.336C199.53 63.336 198.075 63.8763 196.968 65.021L198.406 66.411C199.078 65.7157 199.984 65.336 201.229 65.336V63.336ZM196.956 65.0337C195.888 66.1775 195.399 67.6677 195.399 69.396H197.399C197.399 68.0577 197.768 67.0945 198.418 66.3983L196.956 65.0337ZM195.399 69.396V78.872H197.399V69.396H195.399ZM195.399 78.872C195.399 79.905 195.147 80.4949 194.82 80.8308C194.498 81.1617 193.938 81.414 192.949 81.414V83.414C194.26 83.414 195.425 83.0759 196.253 82.2263C197.076 81.3814 197.399 80.2003 197.399 78.872H195.399ZM228.541 81.506C225.99 81.506 223.848 81.0516 222.082 80.1828L221.199 81.9773C223.297 83.0097 225.755 83.506 228.541 83.506V81.506ZM222.099 80.1914C220.355 79.2911 219.025 78.053 218.083 76.4737L216.366 77.4983C217.509 79.415 219.124 80.9063 221.182 81.9686L222.099 80.1914ZM218.094 76.4915C217.181 74.8873 216.707 72.9781 216.707 70.73H214.707C214.707 73.2659 215.244 75.5274 216.355 77.4805L218.094 76.4915ZM216.707 70.73C216.707 68.5427 217.166 66.6773 218.05 65.1015L216.307 64.1225C215.228 66.0427 214.707 68.256 214.707 70.73H216.707ZM218.054 65.0951C218.947 63.4772 220.179 62.2329 221.762 61.344L220.783 59.6C218.87 60.6738 217.373 62.1895 216.303 64.1289L218.054 65.0951ZM221.767 61.3412C223.381 60.4228 225.217 59.954 227.299 59.954V57.954C224.903 57.954 222.721 58.4972 220.778 59.6028L221.767 61.3412ZM227.299 59.954C228.809 59.954 230.148 60.2102 231.328 60.7044L232.101 58.8596C230.644 58.2498 229.038 57.954 227.299 57.954V59.954ZM231.347 60.712C232.532 61.1803 233.542 61.8644 234.39 62.7667L235.847 61.3973C234.794 60.2756 233.535 59.4264 232.082 58.852L231.347 60.712ZM234.4 62.7778C235.237 63.6414 235.885 64.7207 236.334 66.0383L238.227 65.3937C237.694 63.8287 236.901 62.4852 235.837 61.3862L234.4 62.7778ZM236.336 66.0445C236.784 67.3333 237.017 68.7992 237.017 70.454H239.017C239.017 68.6128 238.758 66.9201 238.225 65.3875L236.336 66.0445ZM237.017 70.454C237.017 70.8104 236.915 70.9441 236.824 71.0198L238.105 72.5562C238.75 72.0186 239.017 71.2629 239.017 70.454H237.017ZM236.865 70.988C236.74 71.0814 236.452 71.202 235.855 71.202V73.202C236.667 73.202 237.453 73.0467 238.065 72.588L236.865 70.988ZM232.634 65.7361C232.195 64.7123 231.53 63.8952 230.624 63.3438L229.585 65.0522C230.089 65.3595 230.498 65.8303 230.795 66.5239L232.634 65.7361ZM230.641 63.3543C229.769 62.799 228.727 62.554 227.575 62.554V64.554C228.446 64.554 229.091 64.7384 229.568 65.0417L230.641 63.3543ZM227.575 62.554C226.283 62.554 225.118 62.8524 224.129 63.499L225.224 65.173C225.829 64.7769 226.597 64.554 227.575 64.554V62.554ZM224.129 63.499C223.149 64.1397 222.418 65.0526 221.92 66.1892L223.753 66.9908C224.114 66.1648 224.609 65.575 225.224 65.173L224.129 63.499ZM223.095 76.3591C224.448 77.712 226.368 78.308 228.679 78.308V76.308C226.695 76.308 225.365 75.8 224.51 74.9449L223.095 76.3591ZM228.679 78.308C229.495 78.308 230.404 78.2064 231.399 78.0138L231.018 76.0502C230.112 76.2257 229.334 76.308 228.679 76.308V78.308ZM231.399 78.0138C232.429 77.8143 233.401 77.4969 234.31 77.059L233.443 75.257C232.696 75.6164 231.889 75.8817 231.018 76.0502L231.399 78.0138ZM234.308 77.0601C234.888 76.7829 235.282 76.7536 235.546 76.8122L235.979 74.8598C235.139 74.6731 234.276 74.8584 233.445 75.2559L234.308 77.0601ZM235.598 76.8224C235.931 76.8779 236.123 77.0067 236.258 77.1817L237.843 75.9623C237.364 75.3399 236.698 74.9781 235.927 74.8496L235.598 76.8224ZM236.258 77.1817C236.437 77.4152 236.539 77.6814 236.558 78.0107L238.555 77.8933C238.513 77.18 238.277 76.5262 237.843 75.9623L236.258 77.1817ZM236.563 78.0689C236.598 78.3643 236.544 78.683 236.351 79.0481L238.118 79.9839C238.477 79.3063 238.638 78.5824 238.55 77.8352L236.563 78.0689ZM236.363 79.0257C236.206 79.3052 235.913 79.5987 235.391 79.8722L236.319 81.6438C237.084 81.2426 237.711 80.7081 238.106 80.0063L236.363 79.0257ZM235.367 79.8851C234.423 80.4125 233.34 80.8094 232.108 81.0672L232.517 83.0248C233.923 82.7307 235.201 82.2689 236.342 81.631L235.367 79.8851ZM232.081 81.0732C230.863 81.3632 229.683 81.506 228.541 81.506V83.506C229.851 83.506 231.186 83.3421 232.544 83.0188L232.081 81.0732ZM245.645 81.414C244.651 81.414 244.052 81.1554 243.684 80.7869L242.27 82.2011C243.128 83.0593 244.308 83.414 245.645 83.414V81.414ZM243.684 80.7869C243.31 80.4137 243.057 79.8264 243.057 78.872H241.057C241.057 80.1869 241.416 81.3477 242.27 82.2011L243.684 80.7869ZM243.057 78.872V62.542H241.057V78.872H243.057ZM243.057 62.542C243.057 61.5705 243.304 61.0066 243.638 60.6731L242.223 59.2589C241.392 60.0907 241.057 61.2442 241.057 62.542H243.057ZM243.638 60.6731C244.021 60.2898 244.586 60.046 245.461 60.046V58.046C244.189 58.046 243.067 58.4156 242.223 59.2589L243.638 60.6731ZM245.461 60.046C246.378 60.046 246.925 60.2959 247.266 60.6548L248.716 59.2773C247.891 58.4095 246.751 58.046 245.461 58.046V60.046ZM247.283 60.6731C247.617 61.0066 247.865 61.5705 247.865 62.542H249.865C249.865 61.2442 249.53 60.0907 248.698 59.2589L247.283 60.6731ZM251.47 61.435C252.531 60.5809 253.944 60.0651 255.78 59.9521L255.657 57.9559C253.507 58.0882 251.669 58.7071 250.216 59.877L251.47 61.435ZM255.798 59.9508C256.341 59.9074 256.575 60.0498 256.711 60.2069L258.222 58.8971C257.561 58.1342 256.63 57.8779 255.639 57.9572L255.798 59.9508ZM256.759 60.2591C256.921 60.4207 257.129 60.8277 257.157 61.7443L259.156 61.6837C259.123 60.5764 258.871 59.542 258.174 58.8449L256.759 60.2591ZM257.159 61.7784C257.209 62.559 257.039 63.0298 256.79 63.3278L258.327 64.6082C258.998 63.8022 259.227 62.7704 259.155 61.6496L257.159 61.7784ZM256.769 63.3541C256.571 63.6089 256.142 63.8799 255.234 63.9869L255.467 65.9732C256.644 65.8347 257.688 65.4311 258.348 64.5819L256.769 63.3541ZM255.264 63.9838L254.206 64.0758L254.379 66.0682L255.437 65.9762L255.264 63.9838ZM254.205 64.0758C252.325 64.2408 250.761 64.7978 249.675 65.8829L251.09 67.2971C251.722 66.6649 252.764 66.2099 254.38 66.0682L254.205 64.0758ZM249.663 65.8959C248.598 67 248.141 68.5275 248.141 70.316H250.141C250.141 68.8539 250.511 67.8973 251.102 67.2841L249.663 65.8959ZM248.141 70.316V78.872H250.141V70.316H248.141ZM248.141 78.872C248.141 79.8264 247.887 80.4137 247.513 80.7869L248.928 82.2011C249.781 81.3477 250.141 80.1869 250.141 78.872H248.141ZM247.496 80.8053C247.16 81.1589 246.602 81.414 245.645 81.414V83.414C246.956 83.414 248.116 83.0557 248.946 82.1828L247.496 80.8053ZM87.9963 79.8983L94.8015 60.8439L92.918 60.1713L86.1128 79.2257L87.9963 79.8983ZM92.9169 60.8409L99.6357 79.8493L101.521 79.1827L94.8026 60.1743L92.9169 60.8409ZM110.212 51.6843L103.339 71.7733L105.231 72.4208L112.105 52.3317L110.212 51.6843ZM105.232 71.7756L98.4435 51.7786L96.5496 52.4215L103.338 72.4185L105.232 71.7756ZM89.6542 51.7194L82.6665 71.3975L84.5512 72.0667L91.5389 52.3886L89.6542 51.7194ZM84.5567 71.4136L77.9285 51.6895L76.0327 52.3266L82.6609 72.0507L84.5567 71.4136ZM62.4094 60.4123L55.3981 77.3913L57.2467 78.1547L64.258 61.1757L62.4094 60.4123ZM57.2483 77.3953L50.3216 60.4163L48.4698 61.1717L55.3965 78.1508L57.2483 77.3953ZM44.9352 62.3394L53.4148 82.0369L55.2518 81.2461L46.7722 61.5486L44.9352 62.3394ZM53.4197 81.2348L50.5981 87.5733L52.4252 88.3867L55.2469 82.0482L53.4197 81.2348ZM43.8537 78.9257L34.0223 69.6751L32.6518 71.1317L42.4831 80.3823L43.8537 78.9257ZM34.0256 71.1286L42.983 62.6232L41.6058 61.1728L32.6485 69.6782L34.0256 71.1286ZM158.376 80.7847C158.811 80.2409 159.154 79.6386 159.404 78.9818L157.535 78.2704C157.357 78.7362 157.117 79.1565 156.814 79.5353L158.376 80.7847ZM157.469 78.6261V78.872H159.469V78.6261H157.469ZM157.331 67.786V68.568H159.331V67.786H157.331ZM158.331 67.568H156.675V69.568H158.331V67.568ZM157.331 72.156V73.076H159.331V72.156H157.331ZM156.721 73.156H158.331V71.156H156.721V73.156ZM126.994 74.9549C126.39 74.334 125.955 73.4044 125.768 72.0638L123.787 72.3403C124.014 73.9688 124.578 75.3392 125.56 76.3491L126.994 74.9549ZM124.777 73.202H138.329V71.202H124.777V73.202ZM124.764 69.614H134.724V67.614H124.764V69.614ZM135.723 68.5593C135.664 67.4994 135.468 66.5454 135.103 65.7239L133.275 66.5361C133.517 67.0792 133.677 67.7811 133.726 68.6687L135.723 68.5593ZM124.395 66.1892C124.09 66.886 123.886 67.652 123.773 68.4791L125.755 68.7489C125.847 68.0775 126.007 67.4943 126.227 66.9908L124.395 66.1892ZM123.776 72.2644C123.78 72.2899 123.783 72.3152 123.787 72.3401L125.768 72.0639C125.765 72.043 125.762 72.0222 125.759 72.0016L123.776 72.2644ZM125.768 72.0671L125.759 71.9981L123.777 72.2679L123.786 72.3369L125.768 72.0671ZM224.52 74.9549C223.916 74.334 223.48 73.4043 223.293 72.0638L221.312 72.3403C221.539 73.9688 222.104 75.3392 223.086 76.3491L224.52 74.9549ZM222.303 73.202H235.855V71.202H222.303V73.202ZM222.29 69.614H232.249V67.614H222.29V69.614ZM233.248 68.5593C233.19 67.4994 232.993 66.5454 232.628 65.7239L230.801 66.5361C231.042 67.0792 231.202 67.7811 231.251 68.6687L233.248 68.5593ZM221.92 66.1892C221.616 66.886 221.411 67.652 221.299 68.4791L223.281 68.7489C223.372 68.0775 223.532 67.4943 223.753 66.9908L221.92 66.1892ZM221.302 72.2647C221.305 72.2894 221.309 72.3147 221.312 72.3405L223.293 72.0636C223.29 72.0435 223.287 72.0228 223.284 72.0013L221.302 72.2647ZM223.293 72.0672L223.284 71.9982L221.302 72.2678L221.312 72.3368L223.293 72.0672ZM250.216 59.877C249.2 60.6946 248.441 61.7417 247.937 62.9947L249.792 63.7412C250.177 62.7859 250.737 62.025 251.47 61.435L250.216 59.877ZM249.865 63.3679V62.542H247.865V63.3679H249.865ZM198.383 59.3301C197.245 59.9878 196.304 60.8626 195.571 61.9476L197.228 63.0676C197.79 62.2352 198.506 61.5689 199.383 61.0619L198.383 59.3301ZM197.399 62.5076V52.698H195.399V62.5076H197.399Z" fill="white" mask="url(#path-2-outside-1_1542_399)"/>
<defs>
<filter id="filter0_d_1542_399" x="206" y="0" width="57.5273" height="58.5272" filterUnits="userSpaceOnUse" color-interpolation-filters="sRGB">
<feFlood flood-opacity="0" result="BackgroundImageFix"/>
<feColorMatrix in="SourceAlpha" type="matrix" values="0 0 0 0 0 0 0 0 0 0 0 0 0 0 0 0 0 0 127 0" result="hardAlpha"/>
<feOffset dy="5"/>
<feGaussianBlur stdDeviation="2"/>
<feComposite in2="hardAlpha" operator="out"/>
<feColorMatrix type="matrix" values="0 0 0 0 0 0 0 0 0 0 0 0 0 0 0 0 0 0 0.25 0"/>
<feBlend mode="normal" in2="BackgroundImageFix" result="effect1_dropShadow_1542_399"/>
<feBlend mode="normal" in="SourceGraphic" in2="effect1_dropShadow_1542_399" result="shape"/>
</filter>
</defs>
</svg>
